<?xml version="1.0" encoding="UTF-8"?>
<svg width="13px" height="12px" viewBox="0 0 13 12" version="1.1" xmlns="http://www.w3.org/2000/svg" xmlns:xlink="http://www.w3.org/1999/xlink">
    <!-- Generator: Sketch 48.2 (47327) - http://www.bohemiancoding.com/sketch -->
    <title>arrow r</title>
    <desc>Created with Sketch.</desc>
    <defs></defs>
    <g id="01_Zernovozam" stroke="none" stroke-width="1" fill="none" fill-rule="evenodd" transform="translate(-858.000000, -3494.000000)">
        <g id="Testimonials" transform="translate(280.000000, 2888.000000)" fill="#64C7FC">
            <g id="right" transform="translate(578.000000, 606.000000)">
                <path d="M9.28493789,5.02103641 L6.78665614,2.52275467 C6.39613185,2.13223038 6.39613185,1.4990654 6.78665614,1.10854111 C7.17718044,0.718016814 7.81034541,0.718016814 8.20086971,1.10854111 L12.4435104,5.35118179 C12.6391414,5.54681283 12.7367722,5.80333344 12.7364026,6.05973903 C12.7367722,6.31614461 12.6391414,6.57266523 12.4435104,6.76829626 L8.20086971,11.010937 C7.81034541,11.4014612 7.17718044,11.4014612 6.78665614,11.010937 C6.39613185,10.6204127 6.39613185,9.98724768 6.78665614,9.59672339 L9.36234312,7.02103641 L1,7.02103641 C0.44771525,7.02103641 -1.24277343e-13,6.57332116 -1.24344979e-13,6.02103641 C-1.24412614e-13,5.46875166 0.44771525,5.02103641 1,5.02103641 L9.28493789,5.02103641 Z" id="arrow-r"></path>
            </g>
        </g>
    </g>
</svg>