<?xml version="1.0" encoding="UTF-8"?>
<svg width="11px" height="14px" viewBox="0 0 11 14" version="1.1" xmlns="http://www.w3.org/2000/svg" xmlns:xlink="http://www.w3.org/1999/xlink">
    <!-- Generator: Sketch 48.2 (47327) - http://www.bohemiancoding.com/sketch -->
    <title>arrow copy</title>
    <desc>Created with Sketch.</desc>
    <defs></defs>
    <g id="00_UI" stroke="none" stroke-width="1" fill="none" fill-rule="evenodd" transform="translate(-635.000000, -814.000000)">
        <g id="Table" transform="translate(368.000000, 748.000000)" fill="#909DBD">
            <g id="Field-Copy" transform="translate(127.000000, 48.000000)">
                <path d="M148.284938,24.2053885 L145.786656,21.7071068 C145.396132,21.3165825 145.396132,20.6834175 145.786656,20.2928932 C146.17718,19.9023689 146.810345,19.9023689 147.20087,20.2928932 L151.44351,24.5355339 C151.639141,24.7311649 151.736772,24.9876856 151.736403,25.2440911 C151.736772,25.5004967 151.639141,25.7570173 151.44351,25.9526484 L147.20087,30.1952891 C146.810345,30.5858134 146.17718,30.5858134 145.786656,30.1952891 C145.396132,29.8047648 145.396132,29.1715998 145.786656,28.7810755 L148.362343,26.2053885 L140,26.2053885 C139.447715,26.2053885 139,25.7576733 139,25.2053885 C139,24.6531038 139.447715,24.2053885 140,24.2053885 L148.284938,24.2053885 Z" id="arrow-copy" transform="translate(145.368202, 25.244091) rotate(-270.000000) translate(-145.368202, -25.244091) "></path>
            </g>
        </g>
    </g>
</svg>