<?xml version="1.0" encoding="UTF-8"?>
<svg width="21px" height="15px" viewBox="0 0 21 15" version="1.1" xmlns="http://www.w3.org/2000/svg" xmlns:xlink="http://www.w3.org/1999/xlink">
    <!-- Generator: Sketch 48.2 (47327) - http://www.bohemiancoding.com/sketch -->
    <title>icon track</title>
    <desc>Created with Sketch.</desc>
    <defs></defs>
    <g id="01_Zernovozam" stroke="none" stroke-width="1" fill="none" fill-rule="evenodd" transform="translate(-34.000000, -307.000000)">
        <g id="sidebar" fill="#6D7996" fill-rule="nonzero">
            <g id="menu" transform="translate(0.000000, 202.000000)">
                <path d="M46,116 L46,107 L36,107 L36,116 C36.0565182,116 36.1119413,116.004689 36.1659016,116.013698 C36.5738454,114.841356 37.6886681,114 39,114 C40.3062188,114 41.4174579,114.834808 41.8292943,116 L46,116 Z M48,116 L49.1707057,116 C49.5825421,114.834808 50.6937812,114 52,114 C52.233953,114 52.4616512,114.02678 52.6801963,114.077442 L52.2151435,110 L48.0243226,110 L48,109.97597 L48,116 Z M49.1707057,118 L41.8292943,118 C41.4174579,119.165192 40.3062188,120 39,120 C37.6886681,120 36.5738454,119.158644 36.1659016,117.986302 C36.1119413,117.995311 36.0565182,118 36,118 L35,118 C34.7238576,118 34.4738576,117.888071 34.2928932,117.707107 C34.1119288,117.526142 34,117.276142 34,117 L34,106 C34,105.447715 34.4477153,105 35,105 L47,105 C47.5522847,105 48,105.447715 48,106 L48,108 L53.1075718,108 C53.6160108,108 54.0435138,108.381516 54.1011303,108.88668 L55.0159602,116.907632 L54.9980173,116.889905 C54.9993353,116.92644 55,116.963142 55,117 C55,118.656854 53.6568542,120 52,120 C50.6937812,120 49.5825421,119.165192 49.1707057,118 Z M39,118 C39.5522847,118 40,117.552285 40,117 C40,116.447715 39.5522847,116 39,116 C38.4477153,116 38,116.447715 38,117 C38,117.552285 38.4477153,118 39,118 Z M52,118 C52.5522847,118 53,117.552285 53,117 C53,116.447715 52.5522847,116 52,116 C51.4477153,116 51,116.447715 51,117 C51,117.552285 51.4477153,118 52,118 Z" id="icon-track"></path>
            </g>
        </g>
    </g>
</svg>