<?xml version="1.0" encoding="UTF-8"?>
<svg width="24px" height="17px" viewBox="0 0 24 17" version="1.1" xmlns="http://www.w3.org/2000/svg" xmlns:xlink="http://www.w3.org/1999/xlink">
    <!-- Generator: Sketch 48.2 (47327) - http://www.bohemiancoding.com/sketch -->
    <title>icon eye B</title>
    <desc>Created with Sketch.</desc>
    <defs></defs>
    <g id="13_Sign-in" stroke="none" stroke-width="1" fill="none" fill-rule="evenodd" transform="translate(-783.000000, -488.000000)">
        <g id="1-st-Screen" fill="#64C7FC" fill-rule="nonzero">
            <g id="Pop-Up-2" transform="translate(445.000000, 392.000000)">
                <g id="Field-1" transform="translate(40.000000, 80.000000)">
                    <g id="eye-view" transform="translate(298.000000, 16.000000)">
                        <path d="M17.4825427,1.17431157 L18.363961,0.292893219 C18.7544853,-0.0976310729 19.3876503,-0.0976310729 19.7781746,0.292893219 C20.1686989,0.683417511 20.1686989,1.31658249 19.7781746,1.70710678 L19.3248474,2.16043393 C20.1066001,2.66679118 20.7548984,3.21042208 21.2791788,3.72438983 C23.1376412,5.54355126 23.8979212,7.37765922 23.9260963,7.452234 C24.0246346,7.6759057 24.0246346,7.94431174 23.9260963,8.16798344 C23.8838585,8.24255822 23.0813407,10.1959753 21.2088156,12.1344458 C19.4770666,13.9238195 16.4781841,16.0710678 12.0009793,16.0710678 C9.87264668,16.0710678 8.07838155,15.5892038 6.59549735,14.889784 L5.63603897,15.8492424 C5.24551468,16.2397667 4.6123497,16.2397667 4.22182541,15.8492424 C3.83130112,15.4587181 3.83130112,14.8255531 4.22182541,14.4350288 L4.80350439,13.8533499 C4.00434128,13.2987325 3.336394,12.7004459 2.79314301,12.1344458 C0.920617942,10.1959753 0.104037402,8.24255822 0.0757629347,8.16798344 C-0.0227753242,7.95925827 -0.0227753242,7.70574614 0.0617002382,7.48207443 C0.0898753228,7.39260575 0.807917603,5.55849779 2.63820489,3.73928373 C4.31365344,2.06921923 7.27029813,0.0710678119 11.9164541,0.0710678119 C14.1312394,0.0710678119 15.974913,0.521733846 17.4825427,1.17431157 Z M8.11140064,13.3738807 C9.28117638,13.8248178 10.5748935,14.0710678 12.0009793,14.0710678 C15.2316209,14.0710678 17.7810076,12.8004447 19.7703458,10.7449119 C19.7893131,10.7252467 19.7893131,10.7252467 19.8081718,10.7055749 C20.5024654,9.98025147 21.0784568,9.20003003 21.5436507,8.41509508 C21.6716605,8.19910068 21.7832764,7.99611745 21.8809946,7.80568121 C21.802548,7.65902316 21.7013628,7.47957887 21.583555,7.28726798 C21.1378231,6.55964959 20.5716368,5.83049078 19.8790813,5.15257994 C19.2793381,4.56463377 18.6137256,4.04451416 17.8784347,3.60684662 L15.4461809,6.03910046 C15.7980706,6.63461372 16,7.3292592 16,8.07106781 C16,10.2802068 14.209139,12.0710678 12,12.0710678 C11.2581914,12.0710678 10.5635459,11.8691384 9.96803265,11.5172487 L8.11140064,13.3738807 Z M6.23975983,12.4170944 L8.55381909,10.1030352 C8.20192939,9.50752191 8,8.81287643 8,8.07106781 C8,5.86192881 9.790861,4.07106781 12,4.07106781 C12.7418086,4.07106781 13.4364541,4.27299721 14.0319673,4.6248869 L15.9457969,2.71105738 C14.7499027,2.29792463 13.4103113,2.07106781 11.9164541,2.07106781 C8.51139144,2.07106781 5.95878444,3.25326106 4.04812099,5.15778174 C3.37127086,5.83053693 2.82238836,6.55503925 2.39613432,7.2765878 C2.28612078,7.46281504 2.19064145,7.63837466 2.10988185,7.79921059 C2.19941397,7.97184781 2.31988084,8.19214343 2.46013999,8.42709716 C2.9329726,9.21915808 3.52315051,10.0114994 4.23161278,10.7449119 C4.84371777,11.3826447 5.51211528,11.9448959 6.23975983,12.4170944 Z M11.4819568,10.0033246 C11.6471834,10.0475106 11.8208407,10.0710678 12,10.0710678 C13.1045695,10.0710678 14,9.17563731 14,8.07106781 C14,7.89190848 13.9764427,7.71825125 13.9322568,7.55302462 L11.4819568,10.0033246 Z M10.0677432,8.58911101 L12.5180432,6.13881105 C12.3528166,6.09462506 12.1791593,6.07106781 12,6.07106781 C10.8954305,6.07106781 10,6.96649831 10,8.07106781 C10,8.25022714 10.0235573,8.42388438 10.0677432,8.58911101 Z" id="icon-eye-B"></path>
                    </g>
                </g>
            </g>
        </g>
    </g>
</svg>