<?xml version="1.0" encoding="UTF-8"?>
<svg width="18px" height="18px" viewBox="0 0 18 18" version="1.1" xmlns="http://www.w3.org/2000/svg" xmlns:xlink="http://www.w3.org/1999/xlink">
    <!-- Generator: Sketch 48.2 (47327) - http://www.bohemiancoding.com/sketch -->
    <title>icon cross</title>
    <desc>Created with Sketch.</desc>
    <defs></defs>
    <g id="02_Request-list-menu-480х800" stroke="none" stroke-width="1" fill="none" fill-rule="evenodd" transform="translate(-429.000000, -30.000000)">
        <path d="M438,37.8861793 L445.228203,30.6579766 C445.575335,30.3108439 446.138149,30.3108439 446.485281,30.6579766 C446.832414,31.0051093 446.832414,31.5679226 446.485281,31.9150553 L439.257079,39.143258 L446.485281,46.3714606 C446.832414,46.7185933 446.832414,47.2814067 446.485281,47.6285394 C446.138149,47.9756721 445.575335,47.9756721 445.228203,47.6285394 L438,40.4003367 L430.771797,47.6285394 C430.424665,47.9756721 429.861851,47.9756721 429.514719,47.6285394 C429.167586,47.2814067 429.167586,46.7185933 429.514719,46.3714606 L436.742921,39.143258 L429.514719,31.9150553 C429.167586,31.5679226 429.167586,31.0051093 429.514719,30.6579766 C429.861851,30.3108439 430.424665,30.3108439 430.771797,30.6579766 L438,37.8861793 Z" id="icon-cross" fill="#6D7996"></path>
    </g>
</svg>