<?xml version="1.0" encoding="UTF-8"?>
<svg width="16px" height="16px" viewBox="0 0 16 16" version="1.1" xmlns="http://www.w3.org/2000/svg" xmlns:xlink="http://www.w3.org/1999/xlink">
    <!-- Generator: Sketch 48.2 (47327) - http://www.bohemiancoding.com/sketch -->
    <title>icon location</title>
    <desc>Created with Sketch.</desc>
    <defs></defs>
    <g id="03_Request-map" stroke="none" stroke-width="1" fill="none" fill-rule="evenodd" transform="translate(-1118.000000, -786.000000)">
        <g id="Map" transform="translate(280.000000, 697.000000)" fill="#64C7FC">
            <path d="M847,91.0829584 C849.512505,91.5044769 851.495523,93.4874951 851.917042,96 L853,96 C853.552285,96 854,96.4477153 854,97 C854,97.5522847 853.552285,98 853,98 L851.917042,98 C851.495523,100.512505 849.512505,102.495523 847,102.917042 L847,104 C847,104.552285 846.552285,105 846,105 C845.447715,105 845,104.552285 845,104 L845,102.917042 C842.487495,102.495523 840.504477,100.512505 840.082958,98 L839,98 C838.447715,98 838,97.5522847 838,97 C838,96.4477153 838.447715,96 839,96 L840.082958,96 C840.504477,93.4874951 842.487495,91.5044769 845,91.0829584 L845,90 C845,89.4477153 845.447715,89 846,89 C846.552285,89 847,89.4477153 847,90 L847,91.0829584 Z M846,101 C848.209139,101 850,99.209139 850,97 C850,94.790861 848.209139,93 846,93 C843.790861,93 842,94.790861 842,97 C842,99.209139 843.790861,101 846,101 Z M846,99 C844.895431,99 844,98.1045695 844,97 C844,95.8954305 844.895431,95 846,95 C847.104569,95 848,95.8954305 848,97 C848,98.1045695 847.104569,99 846,99 Z" id="icon-location"></path>
        </g>
    </g>
</svg>