<?xml version="1.0" encoding="UTF-8"?>
<svg width="16px" height="16px" viewBox="0 0 16 16" version="1.1" xmlns="http://www.w3.org/2000/svg" xmlns:xlink="http://www.w3.org/1999/xlink">
    <!-- Generator: sketchtool 49 (51002) - http://www.bohemiancoding.com/sketch -->
    <title>7A27CEC7-B492-43A8-B618-00D0EDD87FD9</title>
    <desc>Created with sketchtool.</desc>
    <defs></defs>
    <g id="Home" stroke="none" stroke-width="1" fill="none" fill-rule="evenodd">
        <g id="02_Request-list" transform="translate(-408.000000, -1440.000000)" fill="#289CF9" fill-rule="nonzero">
            <g id="Table" transform="translate(368.000000, 705.000000)">
                <g id="Line-More" transform="translate(0.000000, 354.000000)">
                    <path d="M48,381.935461 C48.8362063,381.348322 49.8753156,381 51,381 C53.7571429,381 56,383.093333 56,385.666667 C56,388.061333 51.9885714,392.302667 51.5314286,392.778667 C51.3957143,392.918667 51.2028571,393 51,393 C50.7971429,393 50.6042857,392.918667 50.4685714,392.778667 C50.2354766,392.535957 49.078293,391.314287 48,389.857635 C46.921707,391.314287 45.7645234,392.535957 45.5314286,392.778667 C45.3957143,392.918667 45.2028571,393 45,393 C44.7971429,393 44.6042857,392.918667 44.4685714,392.778667 C44.0114286,392.302667 40,388.061333 40,385.666667 C40,383.093333 42.2428571,381 45,381 C46.1246844,381 47.1637937,381.348322 48,381.935461 Z M46.6169301,383.422549 C46.1530609,383.156299 45.5996886,383 45,383 C43.3177685,383 42,384.229917 42,385.666667 C42,386.145934 42.6197264,387.345579 43.6652251,388.74533 C44.0782361,389.298285 44.5318887,389.854186 45,390.39178 C45.4681113,389.854186 45.9217639,389.298285 46.3347749,388.74533 C46.508648,388.512543 46.6707452,388.28529 46.8201744,388.065964 C46.3339743,387.202329 46,386.357625 46,385.666667 C46,384.853779 46.2238056,384.088788 46.6169301,383.422549 Z M52.3347749,388.74533 C53.3802736,387.345579 54,386.145934 54,385.666667 C54,384.229917 52.6822315,383 51,383 C49.3177685,383 48,384.229917 48,385.666667 C48,386.145934 48.6197264,387.345579 49.6652251,388.74533 C50.0782361,389.298285 50.5318887,389.854186 51,390.39178 C51.4681113,389.854186 51.9217639,389.298285 52.3347749,388.74533 Z M45,397 C44.4477153,397 44,396.552285 44,396 C44,395.447715 44.4477153,395 45,395 C45.5522847,395 46,395.447715 46,396 C46,396.552285 45.5522847,397 45,397 Z M48,397 C47.4477153,397 47,396.552285 47,396 C47,395.447715 47.4477153,395 48,395 C48.5522847,395 49,395.447715 49,396 C49,396.552285 48.5522847,397 48,397 Z M51,397 C50.4477153,397 50,396.552285 50,396 C50,395.447715 50.4477153,395 51,395 C51.5522847,395 52,395.447715 52,396 C52,396.552285 51.5522847,397 51,397 Z" id="icon-2-Point"></path>
                </g>
            </g>
        </g>
    </g>
</svg>