<?xml version="1.0" encoding="UTF-8"?>
<svg width="16px" height="10px" viewBox="0 0 16 10" version="1.1" xmlns="http://www.w3.org/2000/svg" xmlns:xlink="http://www.w3.org/1999/xlink">
    <!-- Generator: Sketch 48.2 (47327) - http://www.bohemiancoding.com/sketch -->
    <title>iconn View</title>
    <desc>Created with Sketch.</desc>
    <defs></defs>
    <g id="02_Request-list-480х800" stroke="none" stroke-width="1" fill="none" fill-rule="evenodd" transform="translate(-404.000000, -2510.000000)">
        <g id="Table" transform="translate(0.000000, 1178.000000)" fill="#909DBD" fill-rule="nonzero">
            <g id="Line-More" transform="translate(30.000000, 641.000000)">
                <path d="M388.140627,696.46383 L388.106939,696.386573 C388.1174,696.412538 388.12863,696.438301 388.140627,696.46383 Z M379.485605,693.362958 C378.552676,693.665977 377.77464,694.146207 377.122262,694.755844 C376.753718,695.099264 376.449826,695.465544 376.208594,695.830059 C376.489503,696.264573 376.838549,696.700233 377.254993,697.104398 C378.45479,698.276297 380.007438,699 382.000653,699 C383.987662,699 385.536574,698.276266 386.746313,697.104398 C386.757797,697.093236 386.757797,697.093236 386.769215,697.082069 C387.170453,696.689098 387.506453,696.267714 387.780184,695.844233 C387.526964,695.474513 387.211988,695.10389 386.832757,694.755878 C386.198343,694.172815 385.439215,693.705782 384.538423,693.400392 C384.830798,693.86339 385,694.411936 385,695 C385,696.656854 383.656854,698 382,698 C380.343146,698 379,696.656854 379,695 C379,694.396007 379.178492,693.833703 379.485605,693.362958 Z M375.862095,698.539611 C374.613745,697.328067 374.069358,696.107182 374.050509,696.060572 C373.984816,695.930119 373.984816,695.771674 374.041133,695.631879 C374.059917,695.575961 374.538612,694.429644 375.758803,693.292635 C376.875769,692.248845 378.846865,691 381.944303,691 C385.04174,691 387.050403,692.239536 388.186119,693.283326 C389.425094,694.420302 389.931947,695.56662 389.950731,695.613229 C390.016423,695.753024 390.016423,695.920777 389.950731,696.060572 C389.922572,696.107182 389.38756,697.328067 388.13921,698.539611 C386.984711,699.65797 384.985456,701 382.000653,701 C379.01585,701 377.016595,699.667278 375.862095,698.539611 Z M382,696 C382.552285,696 383,695.552285 383,695 C383,694.447715 382.552285,694 382,694 C381.447715,694 381,694.447715 381,695 C381,695.552285 381.447715,696 382,696 Z" id="iconn-View"></path>
            </g>
        </g>
    </g>
</svg>