<?xml version="1.0" encoding="UTF-8"?>
<svg width="16px" height="16px" viewBox="0 0 16 16" version="1.1" xmlns="http://www.w3.org/2000/svg" xmlns:xlink="http://www.w3.org/1999/xlink">
    <!-- Generator: Sketch 48.2 (47327) - http://www.bohemiancoding.com/sketch -->
    <title>icon List B</title>
    <desc>Created with Sketch.</desc>
    <defs></defs>
    <g id="02_Request-list" stroke="none" stroke-width="1" fill="none" fill-rule="evenodd" transform="translate(-1278.000000, -721.000000)">
        <g id="Table" transform="translate(368.000000, 705.000000)" fill="#64C7FC">
            <g id="Tabs" transform="translate(894.000000, 0.000000)">
                <path d="M17,16 L31,16 C31.5522847,16 32,16.4477153 32,17 C32,17.5522847 31.5522847,18 31,18 L17,18 C16.4477153,18 16,17.5522847 16,17 C16,16.4477153 16.4477153,16 17,16 Z M17,30 L31,30 C31.5522847,30 32,30.4477153 32,31 C32,31.5522847 31.5522847,32 31,32 L17,32 C16.4477153,32 16,31.5522847 16,31 C16,30.4477153 16.4477153,30 17,30 Z M17,23 L31,23 C31.5522847,23 32,23.4477153 32,24 C32,24.5522847 31.5522847,25 31,25 L17,25 C16.4477153,25 16,24.5522847 16,24 C16,23.4477153 16.4477153,23 17,23 Z" id="icon-List-B"></path>
            </g>
        </g>
    </g>
</svg>