<?xml version="1.0" encoding="UTF-8"?>
<svg width="51px" height="48px" viewBox="0 0 51 48" version="1.1" xmlns="http://www.w3.org/2000/svg" xmlns:xlink="http://www.w3.org/1999/xlink">
    <!-- Generator: Sketch 48.2 (47327) - http://www.bohemiancoding.com/sketch -->
    <title>icon 8</title>
    <desc>Created with Sketch.</desc>
    <defs></defs>
    <g id="01_Zernovozam" stroke="none" stroke-width="1" fill="none" fill-rule="evenodd" transform="translate(-936.000000, -4760.000000)">
        <g id="Начните-прямо-сейчас" transform="translate(280.000000, 4144.000000)" fill="#FFFFFF" fill-rule="nonzero">
            <g id="8" transform="translate(424.000000, 536.000000)">
                <path d="M243,114 L238.5,114 C237.671573,114 237,113.328427 237,112.5 C237,111.671573 237.671573,111 238.5,111 L243,111 L243,108 L240.5,108 C239.671573,108 239,107.328427 239,106.5 C239,105.671573 239.671573,105 240.5,105 L243,105 L243,102 L240.5,102 C239.671573,102 239,101.328427 239,100.5 C239,99.6715729 239.671573,99 240.5,99 L243,99 L243,96 L238.5,96 C237.671573,96 237,95.3284271 237,94.5 C237,93.6715729 237.671573,93 238.5,93 L243,93 L243,90 L240.5,90 C239.671573,90 239,89.3284271 239,88.5 C239,87.6715729 239.671573,87 240.5,87 L243,87 L243,83 L235,83 L235,125 L243,125 L243,120 L240.5,120 C239.671573,120 239,119.328427 239,118.5 C239,117.671573 239.671573,117 240.5,117 L243,117 L243,114 Z M246,104.007399 C249.758789,100.676811 253.48415,99 257.20195,99 C265.337401,99 273.509058,107.029258 281.98796,122.846411 C282.260567,123.354952 282.403218,123.923001 282.403218,124.5 C282.403218,126.432986 280.836223,127.999982 278.903237,127.999982 L244.003847,127.999996 C244.002565,127.999999 244.001283,128 244,128 L234,128 C232.895431,128 232,127.104569 232,126 L232,82 C232,80.8954305 232.895431,80 234,80 L244,80 C245.104569,80 246,80.8954305 246,82 L246,104.007399 Z M246,124.999996 L278.903237,124.999982 C279.179369,124.999982 279.403218,124.776132 279.403218,124.5 C279.403218,124.417574 279.38284,124.336427 279.343898,124.263781 C271.344327,109.340806 263.873331,102 257.20195,102 C253.677781,102 249.93048,104.048451 246,108.180933 L246,124.999996 Z M257.76395,104.94 C258.04195,105.218 258.20195,105.604 258.20195,106 C258.20195,106.394 258.04195,106.78 257.76395,107.06 C257.48395,107.34 257.09795,107.5 256.70195,107.5 C256.30795,107.5 255.92195,107.34 255.64195,107.06 C255.36195,106.78 255.20195,106.394 255.20195,106 C255.20195,105.604 255.36195,105.218 255.64195,104.94 C255.92195,104.66 256.30795,104.5 256.70195,104.5 C257.09795,104.5 257.48395,104.66 257.76395,104.94 Z M264.76195,109.938 C265.04195,110.218 265.20195,110.604 265.20195,111 C265.20195,111.394 265.04195,111.78 264.76195,112.06 C264.48195,112.34 264.09595,112.5 263.70195,112.5 C263.30595,112.5 262.91995,112.34 262.63995,112.06 C262.36195,111.782 262.20195,111.394 262.20195,111 C262.20195,110.604 262.36195,110.218 262.63995,109.938 C262.91995,109.66 263.30595,109.5 263.70195,109.5 C264.09595,109.5 264.48395,109.66 264.76195,109.938 Z M271.76195,114.94 C272.04195,115.218 272.20195,115.606 272.20195,116 C272.20195,116.394 272.04195,116.782 271.76195,117.06 C271.48395,117.34 271.09595,117.5 270.70195,117.5 C270.30795,117.5 269.91995,117.34 269.64195,117.06 C269.36195,116.782 269.20195,116.394 269.20195,116 C269.20195,115.606 269.36195,115.218 269.64195,114.94 C269.91995,114.66 270.30795,114.5 270.70195,114.5 C271.09595,114.5 271.48395,114.66 271.76195,114.94 Z M257.76195,111.938 C258.04195,112.218 258.20195,112.604 258.20195,113 C258.20195,113.394 258.04195,113.782 257.76195,114.06 C257.48395,114.34 257.09595,114.5 256.70195,114.5 C256.30795,114.5 255.91995,114.34 255.64195,114.06 C255.36195,113.78 255.20195,113.394 255.20195,113 C255.20195,112.604 255.36195,112.218 255.64195,111.938 C255.91995,111.66 256.30795,111.5 256.70195,111.5 C257.09795,111.5 257.48395,111.66 257.76195,111.938 Z" id="icon-8"></path>
            </g>
        </g>
    </g>
</svg>