<?xml version="1.0" encoding="UTF-8"?>
<svg width="48px" height="48px" viewBox="0 0 48 48" version="1.1" xmlns="http://www.w3.org/2000/svg" xmlns:xlink="http://www.w3.org/1999/xlink">
    <!-- Generator: Sketch 48.2 (47327) - http://www.bohemiancoding.com/sketch -->
    <title>icon 4</title>
    <desc>Created with Sketch.</desc>
    <defs></defs>
    <g id="01_Zernovozam" stroke="none" stroke-width="1" fill="none" fill-rule="evenodd" transform="translate(-602.000000, -4588.000000)">
        <g id="Начните-прямо-сейчас" transform="translate(280.000000, 4144.000000)" fill="#6D7996">
            <g id="4" transform="translate(88.000000, 364.000000)">
                <path d="M258,80 C258.828427,80 259.5,80.6715729 259.5,81.5 L259.5,83.5 C259.5,84.3284271 258.828427,85 258,85 C257.171573,85 256.5,84.3284271 256.5,83.5 L256.5,81.5 C256.5,80.6715729 257.171573,80 258,80 Z M270,83.2153903 C270.717439,83.6296039 270.963252,84.5469895 270.549038,85.2644284 L269.549038,86.9964792 C269.134825,87.7139182 268.217439,87.9597309 267.5,87.5455173 C266.782561,87.1313038 266.536748,86.2139182 266.950962,85.4964792 L267.950962,83.7644284 C268.365175,83.0469895 269.282561,82.8011767 270,83.2153903 Z M278.78461,92 C279.198823,92.7174389 278.953011,93.6348245 278.235572,94.0490381 L276.503521,95.0490381 C275.786082,95.4632517 274.868696,95.2174389 274.454483,94.5 C274.040269,93.7825611 274.286082,92.8651755 275.003521,92.4509619 L276.735572,91.4509619 C277.453011,91.0367483 278.370396,91.2825611 278.78461,92 Z M282,104 C282,104.828427 281.328427,105.5 280.5,105.5 L278.5,105.5 C277.671573,105.5 277,104.828427 277,104 C277,103.171573 277.671573,102.5 278.5,102.5 L280.5,102.5 C281.328427,102.5 282,103.171573 282,104 Z M278.78461,116 C278.370396,116.717439 277.453011,116.963252 276.735572,116.549038 L275.003521,115.549038 C274.286082,115.134825 274.040269,114.217439 274.454483,113.5 C274.868696,112.782561 275.786082,112.536748 276.503521,112.950962 L278.235572,113.950962 C278.953011,114.365175 279.198823,115.282561 278.78461,116 Z M270,124.78461 C269.282561,125.198823 268.365175,124.953011 267.950962,124.235572 L266.950962,122.503521 C266.536748,121.786082 266.782561,120.868696 267.5,120.454483 C268.217439,120.040269 269.134825,120.286082 269.549038,121.003521 L270.549038,122.735572 C270.963252,123.453011 270.717439,124.370396 270,124.78461 Z M258,128 C257.171573,128 256.5,127.328427 256.5,126.5 L256.5,124.5 C256.5,123.671573 257.171573,123 258,123 C258.828427,123 259.5,123.671573 259.5,124.5 L259.5,126.5 C259.5,127.328427 258.828427,128 258,128 Z M246,124.78461 C245.282561,124.370396 245.036748,123.453011 245.450962,122.735572 L246.450962,121.003521 C246.865175,120.286082 247.782561,120.040269 248.5,120.454483 C249.217439,120.868696 249.463252,121.786082 249.049038,122.503521 L248.049038,124.235572 C247.634825,124.953011 246.717439,125.198823 246,124.78461 Z M237.21539,116 C236.801177,115.282561 237.046989,114.365175 237.764428,113.950962 L239.496479,112.950962 C240.213918,112.536748 241.131304,112.782561 241.545517,113.5 C241.959731,114.217439 241.713918,115.134825 240.996479,115.549038 L239.264428,116.549038 C238.546989,116.963252 237.629604,116.717439 237.21539,116 Z M234,104 C234,103.171573 234.671573,102.5 235.5,102.5 L237.5,102.5 C238.328427,102.5 239,103.171573 239,104 C239,104.828427 238.328427,105.5 237.5,105.5 L235.5,105.5 C234.671573,105.5 234,104.828427 234,104 Z M237.21539,92 C237.629604,91.2825611 238.546989,91.0367483 239.264428,91.4509619 L240.996479,92.4509619 C241.713918,92.8651755 241.959731,93.7825611 241.545517,94.5 C241.131304,95.2174389 240.213918,95.4632517 239.496479,95.0490381 L237.764428,94.0490381 C237.046989,93.6348245 236.801177,92.7174389 237.21539,92 Z M246,83.2153903 C246.717439,82.8011767 247.634825,83.0469895 248.049038,83.7644284 L249.049038,85.4964792 C249.463252,86.2139182 249.217439,87.1313038 248.5,87.5455173 C247.782561,87.9597309 246.865175,87.7139182 246.450962,86.9964792 L245.450962,85.2644284 C245.036748,84.5469895 245.282561,83.6296039 246,83.2153903 Z M257,120 L257,104 C257,103.447715 257.447715,103 258,103 L274,103 C273.351506,112.086795 266.086795,119.351506 257,120 Z M260,106 L260,116.429893 C265.009141,114.962342 268.962342,111.009141 270.429893,106 L260,106 Z" id="icon-4"></path>
            </g>
        </g>
    </g>
</svg>