<?xml version="1.0" encoding="UTF-8"?>
<svg width="16px" height="16px" viewBox="0 0 16 16" version="1.1" xmlns="http://www.w3.org/2000/svg" xmlns:xlink="http://www.w3.org/1999/xlink">
    <!-- Generator: Sketch 48.2 (47327) - http://www.bohemiancoding.com/sketch -->
    <title>Icon info</title>
    <desc>Created with Sketch.</desc>
    <defs></defs>
    <g id="11_Get-Timeslots" stroke="none" stroke-width="1" fill="none" fill-rule="evenodd" transform="translate(-174.000000, -193.000000)">
        <g id="sidebar" fill="#909DBD">
            <g id="Login" transform="translate(32.000000, 130.000000)">
                <path d="M150,79 C145.581722,79 142,75.418278 142,71 C142,66.581722 145.581722,63 150,63 C154.418278,63 158,66.581722 158,71 C158,75.418278 154.418278,79 150,79 Z M150,78 C153.865993,78 157,74.8659932 157,71 C157,67.1340068 153.865993,64 150,64 C146.134007,64 143,67.1340068 143,71 C143,74.8659932 146.134007,78 150,78 Z M149.149231,72.0884615 C149.149231,70.9319615 150.730769,70.4871538 150.730769,69.6173077 C150.730769,69.2713462 150.503423,69.044 149.999308,69.044 C149.455654,69.044 149.129462,69.4097308 148.931769,69.8743077 L147.567692,69.0934231 C148.002615,68.0753077 148.961423,67.502 150.058615,67.502 C151.185462,67.502 152.312308,68.1939231 152.312308,69.4789231 C152.312308,70.9517308 150.730769,71.4064231 150.730769,72.0884615 L149.149231,72.0884615 Z M149.94,74.698 C149.426,74.698 149.000962,74.2729615 149.000962,73.7589615 C149.000962,73.2449615 149.426,72.8199231 149.94,72.8199231 C150.454,72.8199231 150.879038,73.2449615 150.879038,73.7589615 C150.879038,74.2729615 150.454,74.698 149.94,74.698 Z" id="Icon-info"></path>
            </g>
        </g>
    </g>
</svg>