<?xml version="1.0" encoding="UTF-8"?>
<svg width="17px" height="16px" viewBox="0 0 17 16" version="1.1" xmlns="http://www.w3.org/2000/svg" xmlns:xlink="http://www.w3.org/1999/xlink">
    <!-- Generator: Sketch 48.2 (47327) - http://www.bohemiancoding.com/sketch -->
    <title>icon Map W</title>
    <desc>Created with Sketch.</desc>
    <defs></defs>
    <g id="02_Request-list" stroke="none" stroke-width="1" fill="none" fill-rule="evenodd" transform="translate(-1326.000000, -721.000000)">
        <g id="Table" transform="translate(368.000000, 705.000000)" fill="#FFFFFF" fill-rule="nonzero">
            <g id="Tabs" transform="translate(894.000000, 0.000000)">
                <path d="M71,28.1497021 L74,29.4334629 L74,20.4195292 L71,18.7744385 L71,28.1497021 Z M69,28.0788667 L69,18.4080737 C68.1552217,18.6827964 66.8644085,19.1026819 66,19.3841257 L66,29.0562384 L69,28.0788667 Z M76,20.5150247 L76,29.3254461 L79,27.8914164 L79,19.0835627 L76,20.5150247 Z M80.8476296,16.0440638 C80.9420741,16.0997559 81,16.1997555 81,16.3077551 L81,28.9230892 C81,29.0369349 80.935463,29.1418576 80.8325185,29.1950881 L75.1710428,31.9643078 C75.1590798,31.9704617 75.1458576,31.9738463 75.1074502,31.988 C75.0800613,31.9953846 75.0520428,32 75.0237094,32 C74.9875057,32 74.9522465,31.9916923 74.903765,31.9769232 L69.9695185,29.8664701 L64.4142963,31.676309 C64.3818704,31.6870782 64.3481852,31.6923089 64.3148148,31.6923089 C64.2496481,31.6923089 64.1851111,31.672309 64.130963,31.634463 C64.0484815,31.5763094 64,31.4833867 64,31.3846178 L64,18.1539015 C64,18.0212867 64.0865741,17.9037487 64.2153333,17.8619027 C67.9958395,16.6307281 69.8961667,16.012987 69.9163148,16.0086793 C69.933,16.004987 69.9496852,16.0019101 69.9906111,16.0019101 C70.0085556,16.0025255 70.0261852,16.0037563 70.0696296,16.0142178 C70.0853704,16.0188331 70.1007963,16.0240639 70.1288148,16.0357561 L75.0237094,18.7289761 L80.5381667,16.0357561 C80.6354444,15.9856025 80.7531852,15.988064 80.8476296,16.0440638 Z" id="icon-Map-W"></path>
            </g>
        </g>
    </g>
</svg>