<?xml version="1.0" encoding="UTF-8"?>
<svg width="16px" height="16px" viewBox="0 0 16 16" version="1.1" xmlns="http://www.w3.org/2000/svg" xmlns:xlink="http://www.w3.org/1999/xlink">
    <!-- Generator: Sketch 48.2 (47327) - http://www.bohemiancoding.com/sketch -->
    <title>icon search W</title>
    <desc>Created with Sketch.</desc>
    <defs></defs>
    <g id="05_Trucks-list" stroke="none" stroke-width="1" fill="none" fill-rule="evenodd" transform="translate(-1198.000000, -244.000000)">
        <g id="1-st-Screen" transform="translate(280.000000, 56.000000)" fill="#FFFFFF">
            <g id="search" transform="translate(88.000000, 144.000000)">
                <g id="Button" transform="translate(810.000000, 28.000000)">
                    <path d="M32.654934,27.1272876 L35.6836526,30.1559828 C36.1054491,30.5778625 36.1054491,31.2617536 35.6836526,31.6836334 C35.4727111,31.8944869 35.1962662,32 34.9198214,32 C34.6433765,32 34.3669317,31.8945733 34.1559902,31.6836334 L31.127335,28.6549475 C29.9364842,29.5280902 28.5044775,29.9995965 27,29.9995965 C25.1302222,29.9995965 23.372381,29.2713204 22.0502857,27.9488909 C20.728127,26.6265249 20,24.8683237 20,22.998163 C20,21.1280023 20.728127,19.3698011 22.0502857,18.0473716 C24.7795556,15.3175428 29.2204444,15.3175428 31.9497143,18.0473716 C33.271873,19.3698011 34,21.1280023 34,22.998163 C34,24.5033463 33.528341,25.9360057 32.654934,27.1272876 Z M27.0001493,18 C25.7197005,18 24.4393104,18.4875044 23.4645012,19.4624545 C22.5201328,20.407075 22,21.6629708 22,22.9988267 C22,24.3346826 22.5201328,25.5905784 23.4645012,26.5351989 C24.4089283,27.4798193 25.6645669,28 27.0001493,28 C28.3357318,28 29.5913704,27.4798193 30.5357975,26.5351989 C31.4801659,25.5905784 32.0002987,24.3346826 32.0002987,22.9988267 C32.0002987,21.6629708 31.4801659,20.407075 30.5357975,19.4624545 C29.5609883,18.4875044 28.2805981,18 27.0001493,18 Z" id="icon-search-W"></path>
                </g>
            </g>
        </g>
    </g>
</svg>