<?xml version="1.0" encoding="UTF-8"?>
<svg width="16px" height="16px" viewBox="0 0 16 16" version="1.1" xmlns="http://www.w3.org/2000/svg" xmlns:xlink="http://www.w3.org/1999/xlink">
    <!-- Generator: Sketch 48.2 (47327) - http://www.bohemiancoding.com/sketch -->
    <title>icon search blue</title>
    <desc>Created with Sketch.</desc>
    <defs></defs>
    <g id="01_Zernovozam" stroke="none" stroke-width="1" fill="none" fill-rule="evenodd" transform="translate(-414.000000, -328.000000)">
        <g id="1-st-Screen" transform="translate(368.000000, -453.000000)" fill="#6D7996">
            <g id="search" transform="translate(0.000000, 709.000000)">
                <g id="Field" transform="translate(30.000000, 56.000000)">
                    <path d="M28.654934,27.1272876 L31.6836526,30.1559828 C32.1054491,30.5778625 32.1054491,31.2617536 31.6836526,31.6836334 C31.4727111,31.8944869 31.1962662,32 30.9198214,32 C30.6433765,32 30.3669317,31.8945733 30.1559902,31.6836334 L27.127335,28.6549475 C25.9364842,29.5280902 24.5044775,29.9995965 23,29.9995965 C21.1302222,29.9995965 19.372381,29.2713204 18.0502857,27.9488909 C16.728127,26.6265249 16,24.8683237 16,22.998163 C16,21.1280023 16.728127,19.3698011 18.0502857,18.0473716 C20.7795556,15.3175428 25.2204444,15.3175428 27.9497143,18.0473716 C29.271873,19.3698011 30,21.1280023 30,22.998163 C30,24.5033463 29.528341,25.9360057 28.654934,27.1272876 Z M23.0001493,18 C21.7197005,18 20.4393104,18.4875044 19.4645012,19.4624545 C18.5201328,20.407075 18,21.6629708 18,22.9988267 C18,24.3346826 18.5201328,25.5905784 19.4645012,26.5351989 C20.4089283,27.4798193 21.6645669,28 23.0001493,28 C24.3357318,28 25.5913704,27.4798193 26.5357975,26.5351989 C27.4801659,25.5905784 28.0002987,24.3346826 28.0002987,22.9988267 C28.0002987,21.6629708 27.4801659,20.407075 26.5357975,19.4624545 C25.5609883,18.4875044 24.2805981,18 23.0001493,18 Z" id="icon-search-blue"></path>
                </g>
            </g>
        </g>
    </g>
</svg>