<?xml version="1.0" encoding="UTF-8"?>
<svg width="52px" height="36px" viewBox="0 0 52 36" version="1.1" xmlns="http://www.w3.org/2000/svg" xmlns:xlink="http://www.w3.org/1999/xlink">
    <!-- Generator: Sketch 48.2 (47327) - http://www.bohemiancoding.com/sketch -->
    <title>icon delivery</title>
    <desc>Created with Sketch.</desc>
    <defs></defs>
    <g id="01_Zernovozam" stroke="none" stroke-width="1" fill="none" fill-rule="evenodd" transform="translate(-827.000000, -2502.000000)">
        <g id="App" transform="translate(373.000000, 2192.000000)" fill="#64C7FC" fill-rule="nonzero">
            <path d="M502.414318,318.266268 C500.672036,316.341062 498.190604,315.277487 495.431991,315.277487 L488.792841,315.277487 L488.792841,311.615557 C488.792841,310.727001 488.080089,310 487.208949,310 L455.583893,310 C454.712752,310 454,310.727001 454,311.615557 L454,317.268147 C454,318.146551 454.712088,318.858639 455.590492,318.858639 L455.590492,318.858639 C456.468897,318.858639 457.180984,318.146551 457.180984,317.268147 L457.180984,313.231114 L485.638255,313.231114 L485.638255,316.893044 L485.638255,338.554974 L470.723266,338.554974 C470.657271,338.554974 470.591275,338.554974 470.52528,338.568437 C469.733333,336.575916 467.819463,335.162304 465.588814,335.162304 C463.344966,335.162304 461.431096,336.589379 460.652349,338.595363 C460.533557,338.568437 460.427964,338.554974 460.309172,338.554974 L457.180984,338.554974 L457.180984,323.504479 C457.180984,322.626074 456.468897,321.913987 455.590492,321.913987 L455.590492,321.913987 C454.712088,321.913987 454,322.626074 454,323.504479 L454,340.157068 C454,341.045625 454.712752,341.772625 455.583893,341.772625 L460.295973,341.772625 C460.92953,344.195961 463.054586,346 465.588814,346 C468.123043,346 470.234899,344.195961 470.776063,341.772625 L487.222148,341.772625 L489.756376,341.772625 C490.297539,344.182498 492.409396,346 494.943624,346 C497.477852,346 499.589709,344.195961 500.130872,341.772625 L503.668233,341.772625 C504.539374,341.772625 505.252125,341.045625 505.252125,340.157068 L505.252125,326.73448 C505.252125,323.247569 504.262192,320.31264 502.414318,318.266268 Z M465.588814,342.782349 C464.400895,342.782349 463.43736,341.799551 463.43736,340.587883 C463.43736,339.376215 464.400895,338.393418 465.588814,338.393418 C466.776734,338.393418 467.740268,339.376215 467.740268,340.587883 C467.740268,341.799551 466.776734,342.782349 465.588814,342.782349 Z M494.943624,342.782349 C493.755705,342.782349 492.79217,341.799551 492.79217,340.587883 C492.79217,339.376215 493.755705,338.393418 494.943624,338.393418 C496.131544,338.393418 497.095078,339.376215 497.095078,340.587883 C497.081879,341.799551 496.118345,342.782349 494.943624,342.782349 Z M502.08434,338.554974 L499.86689,338.554974 C499.074944,336.575916 497.161074,335.162304 494.943624,335.162304 C492.726174,335.162304 490.812304,336.562453 490.020358,338.554974 L488.80604,338.554974 L488.80604,318.508601 L495.44519,318.508601 C499.602908,318.508601 502.08434,321.591623 502.08434,326.747943 L502.08434,338.554974 Z" id="icon-delivery"></path>
        </g>
    </g>
</svg>