<?xml version="1.0" encoding="UTF-8"?>
<svg width="51px" height="48px" viewBox="0 0 51 48" version="1.1" xmlns="http://www.w3.org/2000/svg" xmlns:xlink="http://www.w3.org/1999/xlink">
    <!-- Generator: Sketch 48.2 (47327) - http://www.bohemiancoding.com/sketch -->
    <title>icon Check</title>
    <desc>Created with Sketch.</desc>
    <defs></defs>
    <g id="12_Sign-up" stroke="none" stroke-width="1" fill="none" fill-rule="evenodd" transform="translate(-697.000000, -1518.000000)">
        <g id="1-st-Screen" fill="#6D7996" fill-rule="nonzero">
            <g id="Pop-Up-6" transform="translate(445.000000, 1486.000000)">
                <path d="M297.972308,51.9414284 C299.092235,51.9414284 300,52.849292 300,53.9692191 L300,56.0125983 C299.996274,62.424311 297.496415,68.4498385 292.960823,72.9802344 C288.428761,77.5071009 282.405292,80 276.000345,80 C275.995247,80 275.991227,80 275.986227,80 C269.575593,79.9962744 263.550164,77.4964143 259.019671,72.9608222 C254.489177,68.4252301 251.996376,62.3968594 252.000004,55.9863232 C252.00373,49.575591 254.503589,43.5500634 259.039181,39.0197656 C263.571243,34.4929972 269.594712,32 275.999659,32 C276.004757,32 276.008679,32 276.013777,32 C279.3965,32.0018628 282.67824,32.7008981 285.768113,34.0776937 C286.791077,34.5335863 287.250695,35.7322407 286.794999,36.7551068 C286.339106,37.777973 285.140746,38.2378852 284.117586,37.7819927 C281.549881,36.6379473 278.822565,36.0569539 276.011522,36.0553852 C276.0076,36.0553852 276.003679,36.0553852 275.999757,36.0553852 C270.676795,36.0553852 265.671683,38.1268043 261.905226,41.8888496 C258.135926,45.6538362 256.058428,50.6612036 256.055389,55.9884801 C256.049114,66.9860802 264.991079,75.938144 275.98858,75.9444187 C275.992502,75.9444187 275.996423,75.9444187 276.000345,75.9444187 C281.323405,75.9444187 286.328419,73.8729996 290.094876,70.1109543 C293.864078,66.3461638 295.941576,61.3387964 295.944615,56.0114218 L295.944615,53.969121 C295.944615,52.849292 296.852381,51.9414284 297.972308,51.9414284 Z M301.799548,34.9891061 C302.600151,35.7746783 302.600151,37.048303 301.799548,37.8338751 L277.36407,61.8107966 C276.963719,62.2036313 276.43907,62.4 275.914421,62.4 C275.389772,62.4 274.865024,62.2036313 274.464772,61.8107966 L267.800452,55.271592 C266.999849,54.4860199 266.999849,53.2123951 267.800452,52.426823 C268.600955,51.6412509 269.899048,51.6412509 270.699551,52.426823 L275.914223,57.5435945 L298.90035,34.9891061 C299.700952,34.2036313 300.998945,34.2036313 301.799548,34.9891061 Z" id="icon-Check"></path>
            </g>
        </g>
    </g>
</svg>