<?xml version="1.0" encoding="UTF-8"?>
<svg width="48px" height="48px" viewBox="0 0 48 48" version="1.1" xmlns="http://www.w3.org/2000/svg" xmlns:xlink="http://www.w3.org/1999/xlink">
    <!-- Generator: Sketch 48.2 (47327) - http://www.bohemiancoding.com/sketch -->
    <title>icon 2</title>
    <desc>Created with Sketch.</desc>
    <defs></defs>
    <g id="01_Zernovozam" stroke="none" stroke-width="1" fill="none" fill-rule="evenodd" transform="translate(-938.000000, -4416.000000)">
        <g id="Начните-прямо-сейчас" transform="translate(280.000000, 4144.000000)" fill="#6D7996">
            <g id="2" transform="translate(424.000000, 192.000000)">
                <path d="M260,102.5 L267,102.5 C267.828427,102.5 268.5,103.171573 268.5,104 C268.5,104.828427 267.828427,105.5 267,105.5 L260,105.5 L260,112.5 C260,113.328427 259.328427,114 258.5,114 C257.671573,114 257,113.328427 257,112.5 L257,105.5 L250,105.5 C249.171573,105.5 248.5,104.828427 248.5,104 C248.5,103.171573 249.171573,102.5 250,102.5 L257,102.5 L257,95.5 C257,94.6715729 257.671573,94 258.5,94 C259.328427,94 260,94.6715729 260,95.5 L260,102.5 Z M258,128 C244.745166,128 234,117.254834 234,104 C234,90.745166 244.745166,80 258,80 C271.254834,80 282,90.745166 282,104 C282,117.254834 271.254834,128 258,128 Z M258,125 C269.59798,125 279,115.59798 279,104 C279,92.4020203 269.59798,83 258,83 C246.40202,83 237,92.4020203 237,104 C237,115.59798 246.40202,125 258,125 Z" id="icon-2"></path>
            </g>
        </g>
    </g>
</svg>