<?xml version="1.0" encoding="UTF-8"?>
<svg width="48px" height="48px" viewBox="0 0 48 48" version="1.1" xmlns="http://www.w3.org/2000/svg" xmlns:xlink="http://www.w3.org/1999/xlink">
    <!-- Generator: Sketch 48.2 (47327) - http://www.bohemiancoding.com/sketch -->
    <title>icon distance</title>
    <desc>Created with Sketch.</desc>
    <defs></defs>
    <g id="01_Zernovozam" stroke="none" stroke-width="1" fill="none" fill-rule="evenodd" transform="translate(-830.000000, -2408.000000)">
        <g id="App" transform="translate(373.000000, 2192.000000)" fill="#6D7996" fill-rule="nonzero">
            <path d="M467.5,225 C473.29,225 478,229.71 478,235.5 C478,240.888 469.576,250.431 468.616,251.502 C468.331,251.817 467.926,252 467.5,252 C467.074,252 466.669,251.817 466.384,251.502 C465.424,250.431 457,240.888 457,235.5 C457,229.71 461.71,225 467.5,225 Z M467.5,248.211 C470.776,244.326 475,238.359 475,235.5 C475,231.366 471.634,228 467.5,228 C463.366,228 460,231.366 460,235.5 C460,238.362 464.224,244.326 467.5,248.211 Z M467.5,231 C469.981,231 472,233.019 472,235.5 C472,237.981 469.981,240 467.5,240 C465.019,240 463,237.981 463,235.5 C463,233.019 465.019,231 467.5,231 Z M467.5,237 C468.328,237 469,236.328 469,235.5 C469,234.672 468.328,234 467.5,234 C466.672,234 466,234.672 466,235.5 C466,236.328 466.672,237 467.5,237 Z M503.5,216 C504.328,216 505,216.672 505,217.5 L505,226.5 C505,227.328 504.328,228 503.5,228 L493,228 L493,232.5 C493,233.328 492.328,234 491.5,234 C490.672,234 490,233.328 490,232.5 L490,226.5 L490,217.5 C490,216.672 490.672,216 491.5,216 L503.5,216 Z M502,225 L502,219 L493,219 L493,225 L502,225 Z M499,249 C502.309,249 505,251.691 505,255 C505,258.309 502.309,261 499,261 L471.724,261 C471.103,262.743 469.453,264 467.5,264 C465.019,264 463,261.981 463,259.5 C463,257.019 465.019,255 467.5,255 C469.453,255 471.103,256.257 471.724,258 L499,258 C500.653,258 502,256.653 502,255 C502,253.347 500.653,252 499,252 L484,252 C480.691,252 478,249.309 478,246 C478,242.691 480.691,240 484,240 L487.276,240 C487.897,238.257 489.547,237 491.5,237 C493.981,237 496,239.019 496,241.5 C496,243.981 493.981,246 491.5,246 C489.547,246 487.897,244.743 487.276,243 L484,243 C482.347,243 481,244.347 481,246 C481,247.653 482.347,249 484,249 L499,249 Z M491.5,240 C490.672,240 490,240.672 490,241.5 C490,242.328 490.672,243 491.5,243 C492.328,243 493,242.328 493,241.5 C493,240.672 492.328,240 491.5,240 Z M467.5,261 C468.328,261 469,260.328 469,259.5 C469,258.672 468.328,258 467.5,258 C466.672,258 466,258.672 466,259.5 C466,260.328 466.672,261 467.5,261 Z" id="icon-distance"></path>
        </g>
    </g>
</svg>