<?xml version="1.0" encoding="UTF-8"?>
<svg width="20px" height="20px" viewBox="0 0 20 20" version="1.1" xmlns="http://www.w3.org/2000/svg" xmlns:xlink="http://www.w3.org/1999/xlink">
    <!-- Generator: Sketch 48.2 (47327) - http://www.bohemiancoding.com/sketch -->
    <title>icon plus</title>
    <desc>Created with Sketch.</desc>
    <defs></defs>
    <g id="01_Zernovozam" stroke="none" stroke-width="1" fill="none" fill-rule="evenodd" transform="translate(-1120.000000, -70.000000)">
        <g id="1-st-Screen" transform="translate(368.000000, -453.000000)" fill="#FFFFFF">
            <g id="+-Подать-Заявку-на-П" transform="translate(732.000000, 509.000000)">
                <path d="M31.1111111,22.8888889 L31.1111111,20 C31.1111111,19.4477153 30.6633959,19 30.1111111,19 L29.8888889,19 C29.3366041,19 28.8888889,19.4477153 28.8888889,20 L28.8888889,22.8888889 L26,22.8888889 C25.4477153,22.8888889 25,23.3366041 25,23.8888889 L25,24.1111111 C25,24.6633959 25.4477153,25.1111111 26,25.1111111 L28.8888889,25.1111111 L28.8888889,28 C28.8888889,28.5522847 29.3366041,29 29.8888889,29 L30.1111111,29 C30.6633959,29 31.1111111,28.5522847 31.1111111,28 L31.1111111,25.1111111 L34,25.1111111 C34.5522847,25.1111111 35,24.6633959 35,24.1111111 L35,23.8888889 C35,23.3366041 34.5522847,22.8888889 34,22.8888889 L31.1111111,22.8888889 Z M30,34 C24.4771525,34 20,29.5228475 20,24 C20,18.4771525 24.4771525,14 30,14 C35.5228475,14 40,18.4771525 40,24 C40,29.5228475 35.5228475,34 30,34 Z" id="icon-plus"></path>
            </g>
        </g>
    </g>
</svg>