<?xml version="1.0" encoding="UTF-8"?>
<svg width="24px" height="16px" viewBox="0 0 24 16" version="1.1" xmlns="http://www.w3.org/2000/svg" xmlns:xlink="http://www.w3.org/1999/xlink">
    <!-- Generator: sketchtool 49 (51002) - http://www.bohemiancoding.com/sketch -->
    <title>D0D7EB98-FBFB-4C6F-A45E-9181EC184C4A</title>
    <desc>Created with sketchtool.</desc>
    <defs></defs>
    <g id="Home" stroke="none" stroke-width="1" fill="none" fill-rule="evenodd">
        <g id="12_Sign-up" transform="translate(-783.000000, -1334.000000)" fill="#64C7FC" fill-rule="nonzero">
            <g id="1-st-Screen">
                <g id="Pop-Up-5" transform="translate(445.000000, 1238.000000)">
                    <g id="Field-1" transform="translate(40.000000, 80.000000)">
                        <path d="M300.793143,28.063378 C298.920618,26.1249075 298.104037,24.1714904 298.075763,24.0969156 C297.977225,23.8881905 297.977225,23.6346783 298.0617,23.4110066 C298.089875,23.3215379 298.807918,21.48743 300.638205,19.6682159 C302.313653,17.9981514 305.270298,16 309.916454,16 C314.56261,16 317.575605,17.9832575 319.279179,19.653322 C321.137641,21.4724834 321.897921,23.3065914 321.926096,23.3811662 C322.024635,23.6048379 322.024635,23.8732439 321.926096,24.0969156 C321.883859,24.1714904 321.081341,26.1249075 319.208816,28.063378 C317.477067,29.8527517 314.478184,32 310.000979,32 C305.523775,32 302.524892,29.8676456 300.793143,28.063378 Z M319.583555,23.2162002 C319.137823,22.4885818 318.571637,21.759423 317.879081,21.0815121 C315.949213,19.1896045 313.337308,18 309.916454,18 C306.511391,18 303.958784,19.1821933 302.048121,21.0867139 C301.371271,21.7594691 300.822388,22.4839714 300.396134,23.20552 C300.286121,23.3917472 300.190641,23.5673068 300.109882,23.7281428 C300.199414,23.90078 300.319881,24.1210756 300.46014,24.3560293 C300.932973,25.1480903 301.523151,25.9404316 302.231613,26.673844 C304.203971,28.728782 306.760811,30 310.000979,30 C313.231621,30 315.781008,28.7293769 317.770346,26.673844 C317.789313,26.6541789 317.789313,26.6541789 317.808172,26.6345071 C318.502465,25.9091837 319.078457,25.1289622 319.543651,24.3440273 C319.67166,24.1280329 319.783276,23.9250496 319.880995,23.7346134 C319.802548,23.5879553 319.701363,23.4085111 319.583555,23.2162002 Z M310,28 C307.790861,28 306,26.209139 306,24 C306,21.790861 307.790861,20 310,20 C312.209139,20 314,21.790861 314,24 C314,26.209139 312.209139,28 310,28 Z M310,26 C311.104569,26 312,25.1045695 312,24 C312,22.8954305 311.104569,22 310,22 C308.895431,22 308,22.8954305 308,24 C308,25.1045695 308.895431,26 310,26 Z" id="icon-eye-open-B"></path>
                    </g>
                </g>
            </g>
        </g>
    </g>
</svg>