<?xml version="1.0" encoding="UTF-8"?>
<svg width="13px" height="11px" viewBox="0 0 13 11" version="1.1" xmlns="http://www.w3.org/2000/svg" xmlns:xlink="http://www.w3.org/1999/xlink">
    <!-- Generator: Sketch 48.2 (47327) - http://www.bohemiancoding.com/sketch -->
    <title>icon back</title>
    <desc>Created with Sketch.</desc>
    <defs></defs>
    <g id="04_Add-Request" stroke="none" stroke-width="1" fill="none" fill-rule="evenodd" transform="translate(-388.000000, -51.000000)">
        <g id="1-st-Screen" transform="translate(280.000000, 32.000000)" fill="#6D7996">
            <g id="Button-back" transform="translate(88.000000, 0.000000)">
                <path d="M29.2849379,23.2053885 L26.7866561,20.7071068 C26.3961319,20.3165825 26.3961319,19.6834175 26.7866561,19.2928932 C27.1771804,18.9023689 27.8103454,18.9023689 28.2008697,19.2928932 L32.4435104,23.5355339 C32.6391414,23.7311649 32.7367722,23.9876856 32.7364026,24.2440911 C32.7367722,24.5004967 32.6391414,24.7570173 32.4435104,24.9526484 L28.2008697,29.1952891 C27.8103454,29.5858134 27.1771804,29.5858134 26.7866561,29.1952891 C26.3961319,28.8047648 26.3961319,28.1715998 26.7866561,27.7810755 L29.3623431,25.2053885 L21,25.2053885 C20.4477153,25.2053885 20,24.7576733 20,24.2053885 C20,23.6531038 20.4477153,23.2053885 21,23.2053885 L29.2849379,23.2053885 Z" id="icon-back" transform="translate(26.368202, 24.244091) scale(-1, 1) translate(-26.368202, -24.244091) "></path>
            </g>
        </g>
    </g>
</svg>