<?xml version="1.0" encoding="UTF-8"?>
<svg width="16px" height="18px" viewBox="0 0 16 18" version="1.1" xmlns="http://www.w3.org/2000/svg" xmlns:xlink="http://www.w3.org/1999/xlink">
    <!-- Generator: Sketch 48.2 (47327) - http://www.bohemiancoding.com/sketch -->
    <title>icon request</title>
    <desc>Created with Sketch.</desc>
    <defs></defs>
    <g id="01_Zernovozam" stroke="none" stroke-width="1" fill="none" fill-rule="evenodd" transform="translate(-36.000000, -261.000000)">
        <g id="sidebar" fill="#64C7FC" fill-rule="nonzero">
            <g id="menu" transform="translate(0.000000, 202.000000)">
                <path d="M37,59 L51,59 C51.5522847,59 52,59.4477153 52,60 L52,76 C52,76.5522847 51.5522847,77 51,77 L37,77 C36.4477153,77 36,76.5522847 36,76 L36,60 C36,59.4477153 36.4477153,59 37,59 Z M38,61 L38,75 L50,75 L50,61 L38,61 Z M41,63 L47,63 C47.5522847,63 48,63.4477153 48,64 C48,64.5522847 47.5522847,65 47,65 L41,65 C40.4477153,65 40,64.5522847 40,64 C40,63.4477153 40.4477153,63 41,63 Z M41,67 L47,67 C47.5522847,67 48,67.4477153 48,68 C48,68.5522847 47.5522847,69 47,69 L41,69 C40.4477153,69 40,68.5522847 40,68 C40,67.4477153 40.4477153,67 41,67 Z M41,71 L43,71 C43.5522847,71 44,71.4477153 44,72 C44,72.5522847 43.5522847,73 43,73 L41,73 C40.4477153,73 40,72.5522847 40,72 C40,71.4477153 40.4477153,71 41,71 Z" id="icon-request"></path>
            </g>
        </g>
    </g>
</svg>