<?xml version="1.0" encoding="UTF-8"?>
<svg width="48px" height="48px" viewBox="0 0 48 48" version="1.1" xmlns="http://www.w3.org/2000/svg" xmlns:xlink="http://www.w3.org/1999/xlink">
    <!-- Generator: Sketch 48.2 (47327) - http://www.bohemiancoding.com/sketch -->
    <title>icon 9</title>
    <desc>Created with Sketch.</desc>
    <defs></defs>
    <g id="01_Zernovozam" stroke="none" stroke-width="1" fill="none" fill-rule="evenodd" transform="translate(-1274.000000, -4760.000000)">
        <g id="Начните-прямо-сейчас" transform="translate(280.000000, 4144.000000)" fill="#FFFFFF" fill-rule="nonzero">
            <g id="9" transform="translate(760.000000, 536.000000)">
                <path d="M252,109.025683 L252,119 L267,119 C267.342,119 267.672,119.117 267.939,119.327 L273,123.38 L273,120.5 C273,119.672 273.672,119 274.5,119 L279,119 L279,101 L272,101 C271.178798,100.991506 270.515686,100.323192 270.515686,99.5 C270.515686,98.6768079 271.178798,98.0084939 272,98.0000803 L279,98 C280.683,98 282,99.317 282,101 L282,119 C282,120.683 280.683,122 279,122 L276,122 L276,126.5 C276,127.076 275.67,127.601 275.151,127.85 C274.941,127.949 274.722,128 274.5,128 C274.167,128 273.834,127.889 273.561,127.673 L266.475,122 L252,122 C250.317,122 249,120.683 249,119 L249,109 C249.003555,108.174493 249.673812,107.506348 250.500122,107.506348 C251.328549,107.506348 252.000122,108.177921 252.000122,109.006348 C252.000122,109.012802 252.000081,109.019248 252,109.025683 Z M264,80 C265.683,80 267,81.317 267,83 L267,101 C267,102.683 265.683,104 264,104 L249.525,104 L242.439,109.673 C242.166,109.889 241.833,110 241.5,110 C241.278,110 241.059,109.949 240.849,109.85 C240.33,109.601 240,109.076 240,108.5 L240,104 L237,104 C235.317,104 234,102.683 234,101 L234,83 C234,81.317 235.317,80 237,80 L264,80 Z M264,101 L264,83 L237,83 L237,101 L241.5,101 C242.328,101 243,101.672 243,102.5 L243,105.38 L248.061,101.327 C248.328,101.117 248.658,101 249,101 L264,101 Z M244.5,93 C243.671573,93 243,92.3284271 243,91.5 C243,90.6715729 243.671573,90 244.5,90 C245.328427,90 246,90.6715729 246,91.5 C246,92.3284271 245.328427,93 244.5,93 Z M250.5,93 C249.671573,93 249,92.3284271 249,91.5 C249,90.6715729 249.671573,90 250.5,90 C251.328427,90 252,90.6715729 252,91.5 C252,92.3284271 251.328427,93 250.5,93 Z M256.5,93 C255.671573,93 255,92.3284271 255,91.5 C255,90.6715729 255.671573,90 256.5,90 C257.328427,90 258,90.6715729 258,91.5 C258,92.3284271 257.328427,93 256.5,93 Z" id="icon-9"></path>
            </g>
        </g>
    </g>
</svg>