<?xml version="1.0" encoding="UTF-8"?>
<svg width="13px" height="13px" viewBox="0 0 13 13" version="1.1" xmlns="http://www.w3.org/2000/svg" xmlns:xlink="http://www.w3.org/1999/xlink">
    <!-- Generator: Sketch 48.2 (47327) - http://www.bohemiancoding.com/sketch -->
    <title>icon cross G</title>
    <desc>Created with Sketch.</desc>
    <defs></defs>
    <g id="02_Request-list-480х800" stroke="none" stroke-width="1" fill="none" fill-rule="evenodd" transform="translate(-48.000000, -708.000000)">
        <g id="1-st-Screen" transform="translate(0.000000, 164.000000)" fill="#909DBD">
            <g id="search" transform="translate(30.000000, 122.000000)">
                <g id="Group-3" transform="translate(0.000000, 404.000000)">
                    <path d="M25.4852814,23.4852814 L31.4852814,23.4852814 C32.0375661,23.4852814 32.4852814,23.9329966 32.4852814,24.4852814 C32.4852814,25.0375661 32.0375661,25.4852814 31.4852814,25.4852814 L25.4852814,25.4852814 L25.4852814,31.4852814 C25.4852814,32.0375661 25.0375661,32.4852814 24.4852814,32.4852814 C23.9329966,32.4852814 23.4852814,32.0375661 23.4852814,31.4852814 L23.4852814,25.4852814 L17.4852814,25.4852814 C16.9329966,25.4852814 16.4852814,25.0375661 16.4852814,24.4852814 C16.4852814,23.9329966 16.9329966,23.4852814 17.4852814,23.4852814 L23.4852814,23.4852814 L23.4852814,17.4852814 C23.4852814,16.9329966 23.9329966,16.4852814 24.4852814,16.4852814 C25.0375661,16.4852814 25.4852814,16.9329966 25.4852814,17.4852814 L25.4852814,23.4852814 Z" id="icon-cross-G" transform="translate(24.485281, 24.485281) rotate(45.000000) translate(-24.485281, -24.485281) "></path>
                </g>
            </g>
        </g>
    </g>
</svg>