<?xml version="1.0" encoding="UTF-8"?>
<svg width="48px" height="48px" viewBox="0 0 48 48" version="1.1" xmlns="http://www.w3.org/2000/svg" xmlns:xlink="http://www.w3.org/1999/xlink">
    <!-- Generator: Sketch 48.2 (47327) - http://www.bohemiancoding.com/sketch -->
    <title>icon 1</title>
    <desc>Created with Sketch.</desc>
    <defs></defs>
    <g id="01_Zernovozam" stroke="none" stroke-width="1" fill="none" fill-rule="evenodd" transform="translate(-602.000000, -4416.000000)">
        <g id="Начните-прямо-сейчас" transform="translate(280.000000, 4144.000000)" fill="#6D7996" fill-rule="nonzero">
            <g id="1" transform="translate(88.000000, 192.000000)">
                <path d="M244.5,89 C250.29,89 255,93.71 255,99.5 C255,104.888 246.576,114.431 245.616,115.502 C245.331,115.817 244.926,116 244.5,116 C244.074,116 243.669,115.817 243.384,115.502 C242.424,114.431 234,104.888 234,99.5 C234,93.71 238.71,89 244.5,89 Z M244.5,112.211 C247.776,108.326 252,102.359 252,99.5 C252,95.366 248.634,92 244.5,92 C240.366,92 237,95.366 237,99.5 C237,102.362 241.224,108.326 244.5,112.211 Z M244.5,95 C246.981,95 249,97.019 249,99.5 C249,101.981 246.981,104 244.5,104 C242.019,104 240,101.981 240,99.5 C240,97.019 242.019,95 244.5,95 Z M244.5,101 C245.328,101 246,100.328 246,99.5 C246,98.672 245.328,98 244.5,98 C243.672,98 243,98.672 243,99.5 C243,100.328 243.672,101 244.5,101 Z M280.5,80 C281.328,80 282,80.672 282,81.5 L282,90.5 C282,91.328 281.328,92 280.5,92 L270,92 L270,96.5 C270,97.328 269.328,98 268.5,98 C267.672,98 267,97.328 267,96.5 L267,90.5 L267,81.5 C267,80.672 267.672,80 268.5,80 L280.5,80 Z M279,89 L279,83 L270,83 L270,89 L279,89 Z M276,113 C279.309,113 282,115.691 282,119 C282,122.309 279.309,125 276,125 L248.724,125 C248.103,126.743 246.453,128 244.5,128 C242.019,128 240,125.981 240,123.5 C240,121.019 242.019,119 244.5,119 C246.453,119 248.103,120.257 248.724,122 L276,122 C277.653,122 279,120.653 279,119 C279,117.347 277.653,116 276,116 L261,116 C257.691,116 255,113.309 255,110 C255,106.691 257.691,104 261,104 L264.276,104 C264.897,102.257 266.547,101 268.5,101 C270.981,101 273,103.019 273,105.5 C273,107.981 270.981,110 268.5,110 C266.547,110 264.897,108.743 264.276,107 L261,107 C259.347,107 258,108.347 258,110 C258,111.653 259.347,113 261,113 L276,113 Z M268.5,104 C267.672,104 267,104.672 267,105.5 C267,106.328 267.672,107 268.5,107 C269.328,107 270,106.328 270,105.5 C270,104.672 269.328,104 268.5,104 Z M244.5,125 C245.328,125 246,124.328 246,123.5 C246,122.672 245.328,122 244.5,122 C243.672,122 243,122.672 243,123.5 C243,124.328 243.672,125 244.5,125 Z" id="icon-1"></path>
            </g>
        </g>
    </g>
</svg>