<?xml version="1.0" encoding="UTF-8"?>
<svg width="21px" height="15px" viewBox="0 0 21 15" version="1.1" xmlns="http://www.w3.org/2000/svg" xmlns:xlink="http://www.w3.org/1999/xlink">
    <!-- Generator: Sketch 48.2 (47327) - http://www.bohemiancoding.com/sketch -->
    <title>icon track w</title>
    <desc>Created with Sketch.</desc>
    <defs></defs>
    <g id="01_Zernovozam" stroke="none" stroke-width="1" fill="none" fill-rule="evenodd" transform="translate(-391.000000, -1877.000000)">
        <g id="Срочно-нужны-зерново" transform="translate(368.000000, 847.000000)" fill="#FFFFFF" fill-rule="nonzero">
            <g id="Заполните-заявку-и-п" transform="translate(0.000000, 797.000000)">
                <g id="+-Создать-заявку" transform="translate(0.000000, 216.000000)">
                    <path d="M35,28 L35,19 L25,19 L25,28 C25.0565182,28 25.1119413,28.0046887 25.1659016,28.0136984 C25.5738454,26.841356 26.6886681,26 28,26 C29.3062188,26 30.4174579,26.8348076 30.8292943,28 L35,28 Z M37,28 L38.1707057,28 C38.5825421,26.8348076 39.6937812,26 41,26 C41.233953,26 41.4616512,26.0267801 41.6801963,26.077442 L41.2151435,22 L37.0243226,22 L37,21.9759696 L37,28 Z M38.1707057,30 L30.8292943,30 C30.4174579,31.1651924 29.3062188,32 28,32 C26.6886681,32 25.5738454,31.158644 25.1659016,29.9863016 C25.1119413,29.9953113 25.0565182,30 25,30 L24,30 C23.7238576,30 23.4738576,29.8880712 23.2928932,29.7071068 C23.1119288,29.5261424 23,29.2761424 23,29 L23,18 C23,17.4477153 23.4477153,17 24,17 L36,17 C36.5522847,17 37,17.4477153 37,18 L37,20 L42.1075718,20 C42.6160108,20 43.0435138,20.3815158 43.1011303,20.8866797 L44.0159602,28.9076318 L43.9980173,28.8899045 C43.9993353,28.9264402 44,28.9631425 44,29 C44,30.6568542 42.6568542,32 41,32 C39.6937812,32 38.5825421,31.1651924 38.1707057,30 Z M28,30 C28.5522847,30 29,29.5522847 29,29 C29,28.4477153 28.5522847,28 28,28 C27.4477153,28 27,28.4477153 27,29 C27,29.5522847 27.4477153,30 28,30 Z M41,30 C41.5522847,30 42,29.5522847 42,29 C42,28.4477153 41.5522847,28 41,28 C40.4477153,28 40,28.4477153 40,29 C40,29.5522847 40.4477153,30 41,30 Z" id="icon-track-w"></path>
                </g>
            </g>
        </g>
    </g>
</svg>