<?xml version="1.0" encoding="UTF-8"?>
<svg width="48px" height="48px" viewBox="0 0 48 48" version="1.1" xmlns="http://www.w3.org/2000/svg" xmlns:xlink="http://www.w3.org/1999/xlink">
    <!-- Generator: Sketch 48.2 (47327) - http://www.bohemiancoding.com/sketch -->
    <title>icon 6</title>
    <desc>Created with Sketch.</desc>
    <defs></defs>
    <g id="01_Zernovozam" stroke="none" stroke-width="1" fill="none" fill-rule="evenodd" transform="translate(-1284.000000, -4588.000000)">
        <g id="Начните-прямо-сейчас" transform="translate(280.000000, 4144.000000)" fill="#6D7996" fill-rule="nonzero">
            <g id="6-hover" transform="translate(760.000000, 364.000000)">
                <path d="M291.433979,125.176682 C292.056682,125.799385 292.056682,126.811676 291.433979,127.434378 C291.121031,127.744133 290.712283,127.900607 290.303534,127.900607 C289.894786,127.900607 289.486037,127.744133 289.173089,127.434378 L275.518337,113.779626 C272.178096,116.605738 267.87027,118.320565 263.160083,118.320565 C252.593297,118.320565 244,109.727268 244,99.1604823 C244,88.5936965 252.593297,80.0003992 263.160083,80.0003992 C273.726869,80.0003992 282.320166,88.5936965 282.320166,99.1604823 C282.320166,103.870669 280.605339,108.181688 277.779227,111.521929 L291.433979,125.176682 Z M263.160083,115.127218 C271.964141,115.127218 279.126819,107.964541 279.126819,99.1604823 C279.126819,90.3564241 271.964141,83.1937464 263.160083,83.1937464 C254.356025,83.1937464 247.193347,90.3564241 247.193347,99.1604823 C247.193347,107.964541 254.356025,115.127218 263.160083,115.127218 Z M255.5,98 L257.5,98 C258.328427,98 259,98.6715729 259,99.5 C259,100.328427 258.328427,101 257.5,101 L255.5,101 C254.671573,101 254,100.328427 254,99.5 C254,98.6715729 254.671573,98 255.5,98 Z M262.5,98 L264.5,98 C265.328427,98 266,98.6715729 266,99.5 C266,100.328427 265.328427,101 264.5,101 L262.5,101 C261.671573,101 261,100.328427 261,99.5 C261,98.6715729 261.671573,98 262.5,98 Z M269.5,98 L271.5,98 C272.328427,98 273,98.6715729 273,99.5 C273,100.328427 272.328427,101 271.5,101 L269.5,101 C268.671573,101 268,100.328427 268,99.5 C268,98.6715729 268.671573,98 269.5,98 Z" id="icon-6"></path>
            </g>
        </g>
    </g>
</svg>