<?xml version="1.0" encoding="UTF-8"?>
<svg width="14px" height="11px" viewBox="0 0 14 11" version="1.1" xmlns="http://www.w3.org/2000/svg" xmlns:xlink="http://www.w3.org/1999/xlink">
    <!-- Generator: Sketch 48.2 (47327) - http://www.bohemiancoding.com/sketch -->
    <title>icon eye copy</title>
    <desc>Created with Sketch.</desc>
    <defs></defs>
    <g id="07_Your-Trucks" stroke="none" stroke-width="1" fill="none" fill-rule="evenodd" transform="translate(-511.000000, -1018.000000)">
        <g id="Table" transform="translate(368.000000, 304.000000)" fill="#909DBD" fill-rule="nonzero">
            <g id="Line-4" transform="translate(0.000000, 617.000000)">
                <g id="Menu" transform="translate(20.000000, 82.000000)">
                    <path d="M136.924265,20.1897083 C137.025245,20.3812 137.025245,20.6188306 136.924265,20.8103222 C136.896401,20.8631528 136.228666,22.1182528 135.060048,23.383375 C133.669535,24.888725 131.944197,26 130,26 C128.05594,26 126.330602,24.8888778 124.939952,23.3833444 C123.771334,22.1182222 123.103599,20.8631222 123.075735,20.8102917 C122.974755,20.6188 122.974755,20.3811694 123.075735,20.1896778 C123.103599,20.1368472 123.771334,18.8817472 124.939952,17.616625 C126.330465,16.111275 128.055803,15 130,15 C131.94406,15 133.669398,16.1111222 135.060048,17.6166556 C136.228666,18.8817778 136.896401,20.1368778 136.924265,20.1897083 Z M133.300471,19.061518 C132.15963,17.8264303 131.019388,17.2 130,17.2 C128.980595,17.2 127.840346,17.8264542 126.699506,19.0615116 C126.280362,19.5152681 125.90183,20.0073631 125.574485,20.4999847 C125.90183,20.9926063 126.280363,21.4847017 126.699529,21.938482 C127.84037,23.1735697 128.980612,23.8 130,23.8 C131.019405,23.8 132.159654,23.1735458 133.300494,21.9384884 C133.719638,21.4847319 134.09817,20.9926369 134.425515,20.5000153 C134.09817,20.0073937 133.719637,19.5152983 133.300471,19.061518 Z M130.125,21.34375 C129.5736,21.34375 129.125,20.89515 129.125,20.34375 C129.125,19.79235 129.5736,19.34375 130.125,19.34375 C130.6764,19.34375 131.125,19.79235 131.125,20.34375 C131.125,20.89515 130.6764,21.34375 130.125,21.34375 Z" id="icon-eye-copy"></path>
                </g>
            </g>
        </g>
    </g>
</svg>