<?xml version="1.0" encoding="UTF-8"?>
<svg width="51px" height="48px" viewBox="0 0 51 48" version="1.1" xmlns="http://www.w3.org/2000/svg" xmlns:xlink="http://www.w3.org/1999/xlink">
    <!-- Generator: Sketch 48.2 (47327) - http://www.bohemiancoding.com/sketch -->
    <title>icon 7</title>
    <desc>Created with Sketch.</desc>
    <defs></defs>
    <g id="01_Zernovozam" stroke="none" stroke-width="1" fill="none" fill-rule="evenodd" transform="translate(-599.000000, -4760.000000)">
        <g id="Начните-прямо-сейчас" transform="translate(280.000000, 4144.000000)" fill="#6D7996" fill-rule="nonzero">
            <g id="7" transform="translate(88.000000, 536.000000)">
                <path d="M280.3,124.555556 L278.6,124.555556 L278.6,98.7222222 C278.6,97.7715556 277.8384,97 276.9,97 L270.1,97 C269.1616,97 268.4,97.7715556 268.4,98.7222222 L268.4,124.555556 L261.6,124.555556 L261.6,109.055556 C261.6,108.104889 260.8384,107.333333 259.9,107.333333 L253.1,107.333333 C252.1616,107.333333 251.4,108.104889 251.4,109.055556 L251.4,124.555556 L244.6,124.555556 L244.6,102.722222 C244.6,101.771556 243.8384,101 242.9,101 L236.1,101 C235.1616,101 234.4,101.771556 234.4,102.722222 L234.4,124.555556 L232.7,124.555556 C231.7616,124.555556 231,125.327111 231,126.277778 C231,127.228444 231.7616,128 232.7,128 L280.3,128 C281.2384,128 282,127.228444 282,126.277778 C282,125.327111 281.2384,124.555556 280.3,124.555556 Z M241.2,124.555556 L237.8,124.555556 L237.8,104.444444 L241.2,104.444444 L241.2,124.555556 Z M258.2,124.555556 L254.8,124.555556 L254.8,110.777778 L258.2,110.777778 L258.2,124.555556 Z M275.2,124.555556 L271.8,124.555556 L271.8,100.444444 L275.2,100.444444 L275.2,124.555556 Z M272.923077,80 C275.722154,80 278,82.3555 278,85.25 C278,88.1445 275.722154,90.5 272.923077,90.5 C271.697846,90.5 270.591077,90.031 269.711077,89.282 L260.975385,94.7035 C261.039692,95.043 261.076923,95.393 261.076923,95.75 C261.076923,98.6445 258.799077,101 256,101 C253.200923,101 250.923077,98.6445 250.923077,95.75 C250.923077,95.393 250.960308,95.043 251.024615,94.7035 L242.288923,93.282 C241.408923,94.031 240.302154,94.5 239.076923,94.5 C236.277846,94.5 234,92.1445 234,89.25 C234,86.3555 236.277846,84 239.076923,84 C241.876,84 244.153846,86.3555 244.153846,89.25 C244.153846,89.607 244.116615,89.957 244.052308,90.2965 L252.788,91.718 C253.668,90.969 254.774769,90.5 256,90.5 C257.225231,90.5 258.332,90.969 259.212,91.718 L267.947692,86.2965 C267.883385,85.957 267.846154,85.607 267.846154,85.25 C267.846154,82.3555 270.124,80 272.923077,80 Z M240.508615,90.125 C240.660923,89.8625 240.769231,89.5755 240.769231,89.25 C240.769231,88.284 240.007692,87.5 239.076923,87.5 C238.146154,87.5 237.384615,88.284 237.384615,89.25 C237.384615,90.216 238.146154,91 239.076923,91 C239.689538,91 240.200615,90.6465 240.498462,90.139 C240.501846,90.1355 240.501846,90.1355 240.508615,90.125 Z M256,97.5 C256.930769,97.5 257.692308,96.716 257.692308,95.75 C257.692308,95.4245 257.580615,95.134 257.431692,94.875 C257.428308,94.8715 257.424923,94.8715 257.421538,94.861 C257.123692,94.3535 256.612615,94 256,94 C255.387385,94 254.876308,94.357 254.578462,94.8575 C254.575077,94.861 254.575077,94.861 254.568308,94.8715 C254.419385,95.134 254.307692,95.4245 254.307692,95.75 C254.307692,96.716 255.069231,97.5 256,97.5 Z M272.923077,87 C273.853846,87 274.615385,86.216 274.615385,85.25 C274.615385,84.284 273.853846,83.5 272.923077,83.5 C271.992308,83.5 271.230769,84.284 271.230769,85.25 C271.230769,85.5755 271.339077,85.8625 271.491385,86.125 C271.491385,86.1285 271.494769,86.1285 271.501538,86.139 C271.799385,86.643 272.310462,87 272.923077,87 Z" id="icon-7"></path>
            </g>
        </g>
    </g>
</svg>