<?xml version="1.0" encoding="UTF-8"?>
<svg width="50px" height="48px" viewBox="0 0 50 48" version="1.1" xmlns="http://www.w3.org/2000/svg" xmlns:xlink="http://www.w3.org/1999/xlink">
    <!-- Generator: sketchtool 49 (51002) - http://www.bohemiancoding.com/sketch -->
    <title>7BB782BC-96EC-4963-AB7B-DDC2C32DF5D9</title>
    <desc>Created with sketchtool.</desc>
    <defs></defs>
    <g id="Home" stroke="none" stroke-width="1" fill="none" fill-rule="evenodd">
        <g id="01_Zernovozam" transform="translate(-936.000000, -4588.000000)" fill="#6D7996" fill-rule="nonzero">
            <g id="Начните-прямо-сейчас" transform="translate(280.000000, 4144.000000)">
                <g id="5" transform="translate(424.000000, 364.000000)">
                    <path d="M243.213988,117.090188 L243.213988,118.01998 C243.213988,120.214667 241.42151,122 239.218038,122 L238.52831,122 C236.324838,122 234.53236,120.214667 234.53236,118.01998 L234.53236,115.465035 C233.052908,114.281577 232.078995,112.492992 232,110.479207 L232,86.4293348 C232,82.8840703 234.892193,80 238.451803,80 L259,80 C259.003598,80.0000127 259.007199,80 259.010803,80 C259.83923,80 260.510803,80.6715729 260.510803,81.5 C260.510803,82.3284271 259.83923,83 259.010803,83 C259.007199,83 259.003598,82.9999873 259,82.9999619 L266,83 L266,82.9931656 C266.00145,82.9954429 266.002898,82.997721 266.004345,83 L243,83 L238.396624,83 C236.52367,83 235,84.4851671 235,86.3107929 L235,97.9980206 L236.562097,91.1953357 C236.964181,89.1880609 238.922895,87.6154952 241.021104,87.6154952 L242,87.6154952 L242,87.6052246 L242.802246,87.6052246 C242.865724,87.6052246 242.928389,87.6087084 242.990059,87.6154952 L243,87.6154952 L243,87.6166188 C243.844475,87.7145816 244.5,88.432227 244.5,89.3029785 C244.5,90.1737301 243.844475,90.8913755 243,90.9893383 L243,91 L242.8526,91 C242.835875,91.0004872 242.819089,91.0007324 242.802246,91.0007324 L242,91.0007324 L242,91 L241.120804,91 C240.510864,91 239.824102,91.5705509 239.707245,92.1743151 L238,100 C238.271737,99.9660071 238.548266,99.9465157 238.829432,99.9465157 L243,99.9465157 L243,100.000038 C243.003598,100.000013 243.007199,100 243.010803,100 C243.83923,100 244.510803,100.671573 244.510803,101.5 C244.510803,102.328427 243.83923,103 243.010803,103 C243.007199,103 243.003598,102.999987 243,102.999962 L238.705451,103 C236.662228,103 235,104.635532 235,106.645599 L235,110.354401 C235,112.364621 236.662228,114 238.705451,114 L243,114 L243,114.002545 C243.833415,114.032019 244.5,114.716935 244.5,115.557541 C244.5,116.324809 243.944652,116.962369 243.213988,117.090188 Z M239.779821,119.400014 C240.44137,119.400014 241.000034,118.91681 240.999829,118.345217 L240.999829,117.114888 L238.525987,117.114888 C238.005596,117.114888 237.496316,117.073983 237,117 L237,118.345217 C237,118.91681 237.559076,119.400014 238.220625,119.400014 L239.779821,119.400014 Z M239.485091,110 C238.666184,110 238,109.327064 238,108.5 C238,107.672936 238.666184,107 239.485091,107 C240.303716,107 240.9699,107.672936 240.9699,108.5 C240.9699,109.327064 240.303716,110 239.485091,110 Z M247,116.479207 L247,92.4293348 C247,88.8840703 249.892193,86 253.451803,86 L275.548975,86 C279.108274,86 282.000156,88.8840703 282,92.4293348 L282,116.520716 C281.909186,118.518083 280.937295,120.29025 279.46764,121.465655 L279.46764,124.01998 C279.46764,126.214667 277.675162,128 275.47169,128 L274.781962,128 C272.57849,128 270.786012,126.214667 270.786012,124.01998 L270.786012,122.948502 L258.213988,122.948502 L258.213988,124.01998 C258.213988,126.214667 256.42151,128 254.218038,128 L253.52831,128 C251.324838,128 249.53236,126.214667 249.53236,124.01998 L249.53236,121.465035 C248.052908,120.281577 247.078995,118.492992 247,116.479207 Z M253.705451,120 L275.294549,120 C277.33746,120 279,118.364621 279,116.354401 L279,112.645599 C279,110.635532 277.33746,109 275.294549,109 L253.705451,109 C251.662228,109 250,110.635532 250,112.645599 L250,116.354401 C250,118.364621 251.662228,120 253.705451,120 Z M253,106 C253.271737,105.966007 253.548266,105.946516 253.829432,105.946516 L275.171341,105.946516 C275.452043,105.946516 275.728263,105.966007 276,106 L274.292446,98.1743151 C274.175589,97.5705509 273.488672,97 272.879196,97 L256.120804,97 C255.510864,97 254.824102,97.5705509 254.707245,98.1743151 L253,106 Z M253.396624,89 C251.52367,89 250,90.4851671 250,92.3107929 L250,103.998021 L251.562097,97.1953357 C251.964181,95.1880609 253.922895,93.6154952 256.021104,93.6154952 L272.978271,93.6154952 C275.07648,93.6154952 277.034882,95.1880609 277.436965,97.1953357 L279,104 L279,92.3107929 C279,90.4853194 277.47633,89 275.603376,89 L253.396624,89 Z M254.779821,125.400014 C255.44137,125.400014 256.000034,124.91681 255.999829,124.345217 L255.999829,123.114888 L253.525987,123.114888 C253.005596,123.114888 252.496316,123.073983 252,123 L252,124.345217 C252,124.91681 252.559076,125.400014 253.220625,125.400014 L254.779821,125.400014 Z M274.220008,125.400014 L275.779204,125.400014 C276.440753,125.400014 276.999829,124.91681 276.999829,124.345217 L276.999829,123 C276.503512,123.073983 275.994233,123.114888 275.473842,123.114888 L273,123.114888 L273,124.345217 C272.999794,124.91681 273.558459,125.400014 274.220008,125.400014 Z M254.485091,116 C253.666184,116 253,115.327064 253,114.5 C253,113.672936 253.666184,113 254.485091,113 C255.303716,113 255.9699,113.672936 255.9699,114.5 C255.9699,115.327064 255.303716,116 254.485091,116 Z M274.485091,116 C273.666184,116 273,115.327064 273,114.5 C273,113.672936 273.666184,113 274.485091,113 C275.303716,113 275.9699,113.672936 275.9699,114.5 C275.9699,115.327064 275.303716,116 274.485091,116 Z" id="icon-5"></path>
                </g>
            </g>
        </g>
    </g>
</svg>