<?xml version="1.0" encoding="UTF-8"?>
<svg width="52px" height="36px" viewBox="0 0 52 36" version="1.1" xmlns="http://www.w3.org/2000/svg" xmlns:xlink="http://www.w3.org/1999/xlink">
    <!-- Generator: Sketch 48.2 (47327) - http://www.bohemiancoding.com/sketch -->
    <title>icon 3</title>
    <desc>Created with Sketch.</desc>
    <defs></defs>
    <g id="01_Zernovozam" stroke="none" stroke-width="1" fill="none" fill-rule="evenodd" transform="translate(-1270.000000, -4428.000000)">
        <g id="Начните-прямо-сейчас" transform="translate(280.000000, 4144.000000)" fill="#6D7996" fill-rule="nonzero">
            <g id="3" transform="translate(760.000000, 192.000000)">
                <path d="M278.414318,100.266268 C276.672036,98.3410621 274.190604,97.2774869 271.431991,97.2774869 L264.792841,97.2774869 L264.792841,93.6155572 C264.792841,92.7270007 264.080089,92 263.208949,92 L231.583893,92 C230.712752,92 230,92.7270007 230,93.6155572 L230,99.2681466 C230,100.146551 230.712088,100.858639 231.590492,100.858639 L231.590492,100.858639 C232.468897,100.858639 233.180984,100.146551 233.180984,99.2681466 L233.180984,95.2311144 L261.638255,95.2311144 L261.638255,98.8930441 L261.638255,120.554974 L246.723266,120.554974 C246.657271,120.554974 246.591275,120.554974 246.52528,120.568437 C245.733333,118.575916 243.819463,117.162304 241.588814,117.162304 C239.344966,117.162304 237.431096,118.589379 236.652349,120.595363 C236.533557,120.568437 236.427964,120.554974 236.309172,120.554974 L233.180984,120.554974 L233.180984,105.504479 C233.180984,104.626074 232.468897,103.913987 231.590492,103.913987 L231.590492,103.913987 C230.712088,103.913987 230,104.626074 230,105.504479 L230,122.157068 C230,123.045625 230.712752,123.772625 231.583893,123.772625 L236.295973,123.772625 C236.92953,126.195961 239.054586,128 241.588814,128 C244.123043,128 246.234899,126.195961 246.776063,123.772625 L263.222148,123.772625 L265.756376,123.772625 C266.297539,126.182498 268.409396,128 270.943624,128 C273.477852,128 275.589709,126.195961 276.130872,123.772625 L279.668233,123.772625 C280.539374,123.772625 281.252125,123.045625 281.252125,122.157068 L281.252125,108.73448 C281.252125,105.247569 280.262192,102.31264 278.414318,100.266268 Z M241.588814,124.782349 C240.400895,124.782349 239.43736,123.799551 239.43736,122.587883 C239.43736,121.376215 240.400895,120.393418 241.588814,120.393418 C242.776734,120.393418 243.740268,121.376215 243.740268,122.587883 C243.740268,123.799551 242.776734,124.782349 241.588814,124.782349 Z M270.943624,124.782349 C269.755705,124.782349 268.79217,123.799551 268.79217,122.587883 C268.79217,121.376215 269.755705,120.393418 270.943624,120.393418 C272.131544,120.393418 273.095078,121.376215 273.095078,122.587883 C273.081879,123.799551 272.118345,124.782349 270.943624,124.782349 Z M278.08434,120.554974 L275.86689,120.554974 C275.074944,118.575916 273.161074,117.162304 270.943624,117.162304 C268.726174,117.162304 266.812304,118.562453 266.020358,120.554974 L264.80604,120.554974 L264.80604,100.508601 L271.44519,100.508601 C275.602908,100.508601 278.08434,103.591623 278.08434,108.747943 L278.08434,120.554974 Z" id="icon-3" transform="translate(255.626063, 110.000000) scale(-1, 1) translate(-255.626063, -110.000000) "></path>
            </g>
        </g>
    </g>
</svg>