<?xml version="1.0" encoding="UTF-8"?>
<svg width="90px" height="44px" viewBox="0 0 90 44" version="1.1" xmlns="http://www.w3.org/2000/svg" xmlns:xlink="http://www.w3.org/1999/xlink">
    <!-- Generator: sketchtool 50.2 (55047) - http://www.bohemiancoding.com/sketch -->
    <title>DD6A721A-88A3-4103-810B-C04A0BB5DC57</title>
    <desc>Created with sketchtool.</desc>
    <defs></defs>
    <g id="Promo" stroke="none" stroke-width="1" fill="none" fill-rule="evenodd" opacity="0.5">
        <g id="03_Promo_on_add_form" transform="translate(-979.000000, -302.000000)" fill="#1F2740" fill-rule="nonzero">
            <path d="M1008.34802,316.034925 C1016.10398,306.707862 1023.73915,302 1031.35308,302 C1043.50623,302 1055.71346,313.994507 1068.37967,337.622962 C1068.7869,338.382645 1069,339.231226 1069,340.093176 C1069,342.980767 1066.65914,345.321623 1063.77155,345.321623 L998.934648,345.321651 C998.931657,345.321651 998.928666,345.321648 998.925675,345.321643 L984.229276,345.321651 C983.283537,345.321651 982.355507,345.065134 981.544025,344.57942 C979.066336,343.096397 978.260002,339.885603 979.74303,337.407924 C988.444296,322.870709 996.555123,315.44465 1004.46378,315.44465 C1005.7526,315.44465 1007.04679,315.641863 1008.34802,316.034925 Z M1029.87383,340.840087 L1063.77155,340.840073 C1064.18405,340.840073 1064.51845,340.505676 1064.51845,340.093176 C1064.51845,339.970044 1064.48801,339.848822 1064.42983,339.740299 C1052.47967,317.447614 1041.31913,306.48155 1031.35308,306.48155 C1025.47998,306.48155 1019.19203,310.28994 1012.57211,317.980511 C1017.92601,321.280851 1023.42598,327.787087 1029.18455,337.40794 C1029.67026,338.219418 1029.92677,339.147442 1029.92677,340.093176 C1029.92677,340.346768 1029.90872,340.596144 1029.87383,340.840087 Z M1032.19263,310.873469 C1032.60792,311.288759 1032.84693,311.865386 1032.84693,312.45695 C1032.84693,313.045527 1032.60792,313.622153 1032.19263,314.040431 C1031.77435,314.458709 1031.19772,314.697725 1030.60616,314.697725 C1030.01758,314.697725 1029.44096,314.458709 1029.02268,314.040431 C1028.6044,313.622153 1028.36538,313.045527 1028.36538,312.45695 C1028.36538,311.865386 1028.6044,311.288759 1029.02268,310.873469 C1029.44096,310.455191 1030.01758,310.216175 1030.60616,310.216175 C1031.19772,310.216175 1031.77435,310.455191 1032.19263,310.873469 Z M1042.64659,318.339732 C1043.06487,318.75801 1043.30388,319.334636 1043.30388,319.9262 C1043.30388,320.514777 1043.06487,321.091403 1042.64659,321.509681 C1042.22831,321.927959 1041.65169,322.166975 1041.06311,322.166975 C1040.47155,322.166975 1039.89492,321.927959 1039.47664,321.509681 C1039.06135,321.094391 1038.82233,320.514777 1038.82233,319.9262 C1038.82233,319.334636 1039.06135,318.75801 1039.47664,318.339732 C1039.89492,317.924441 1040.47155,317.685425 1041.06311,317.685425 C1041.65169,317.685425 1042.2313,317.924441 1042.64659,318.339732 Z M1053.10354,325.811969 C1053.52182,326.22726 1053.76083,326.806873 1053.76083,327.39545 C1053.76083,327.984027 1053.52182,328.563641 1053.10354,328.978931 C1052.68825,329.397209 1052.10864,329.636225 1051.52006,329.636225 C1050.93148,329.636225 1050.35187,329.397209 1049.93658,328.978931 C1049.5183,328.563641 1049.27928,327.984027 1049.27928,327.39545 C1049.27928,326.806873 1049.5183,326.22726 1049.93658,325.811969 C1050.35187,325.393691 1050.93148,325.154675 1051.52006,325.154675 C1052.10864,325.154675 1052.68825,325.393691 1053.10354,325.811969 Z M1023.22654,316.845882 C1023.64482,317.26416 1023.88383,317.840786 1023.88383,318.43235 C1023.88383,319.020927 1023.64482,319.600541 1023.22654,320.015831 C1022.81125,320.434109 1022.23164,320.673125 1021.64306,320.673125 C1021.05448,320.673125 1020.47487,320.434109 1020.05958,320.015831 C1019.6413,319.597553 1019.40228,319.020927 1019.40228,318.43235 C1019.40228,317.840786 1019.6413,317.26416 1020.05958,316.845882 C1020.47487,316.430591 1021.05448,316.191575 1021.64306,316.191575 C1022.23462,316.191575 1022.81125,316.430591 1023.22654,316.845882 Z M1012.77258,327.302832 C1012.3543,326.887541 1011.77767,326.648525 1011.18611,326.648525 C1010.59753,326.648525 1010.01792,326.887541 1009.60263,327.302832 C1009.18435,327.72111 1008.94533,328.297736 1008.94533,328.8893 C1008.94533,329.477877 1009.18435,330.054503 1009.60263,330.472781 C1010.02091,330.891059 1010.59723,331.130075 1011.18611,331.130075 C1011.77767,331.130075 1012.3543,330.891059 1012.77258,330.472781 C1013.18787,330.057491 1013.42688,329.477877 1013.42688,328.8893 C1013.42688,328.297736 1013.18787,327.72111 1012.77258,327.302832 Z M1005.30333,322.824269 C1004.88505,322.405991 1004.30842,322.166975 1003.71686,322.166975 C1003.12828,322.166975 1002.54867,322.405991 1002.13338,322.824269 C1001.7151,323.242547 1001.47608,323.819173 1001.47608,324.40775 C1001.47608,324.999315 1001.7151,325.575941 1002.13338,325.994219 C1002.55166,326.409509 1003.12828,326.648525 1003.71686,326.648525 C1004.30842,326.648525 1004.88505,326.409509 1005.30333,325.994219 C1005.71862,325.575941 1005.95763,324.999315 1005.95763,324.40775 C1005.95763,323.819173 1005.71862,323.242547 1005.30333,322.824269 Z M997.83109,330.293519 C997.412812,329.875241 996.836186,329.636225 996.247609,329.636225 C995.656044,329.636225 995.079418,329.875241 994.66114,330.293519 C994.24585,330.711797 994.006834,331.288424 994.006834,331.877 C994.006834,332.468565 994.24585,333.045191 994.66114,333.463469 C995.079418,333.878759 995.656044,334.117775 996.247609,334.117775 C996.836186,334.117775 997.412812,333.878759 997.83109,333.463469 C998.249368,333.045191 998.488384,332.468565 998.488384,331.877 C998.488384,331.288424 998.249368,330.711797 997.83109,330.293519 Z" id="icon-heap"></path>
        </g>
    </g>
</svg>