<?xml version="1.0" encoding="UTF-8"?>
<svg width="19px" height="19px" viewBox="0 0 19 19" version="1.1" xmlns="http://www.w3.org/2000/svg" xmlns:xlink="http://www.w3.org/1999/xlink">
    <!-- Generator: Sketch 48.2 (47327) - http://www.bohemiancoding.com/sketch -->
    <title>icon home blue</title>
    <desc>Created with Sketch.</desc>
    <defs></defs>
    <g id="01_Zernovozam" stroke="none" stroke-width="1" fill="none" fill-rule="evenodd" transform="translate(-35.000000, -217.000000)">
        <g id="sidebar" fill="#6D7996">
            <g id="menu" transform="translate(0.000000, 202.000000)">
                <path d="M38,24.636039 L37.4289322,25.2071068 C37.0384079,25.5976311 36.4052429,25.5976311 36.0147186,25.2071068 C35.6241943,24.8165825 35.6241943,24.1834175 36.0147186,23.7928932 L43.7928932,16.0147186 C44.1834175,15.6241943 44.8165825,15.6241943 45.2071068,16.0147186 L52.9852814,23.7928932 C53.3758057,24.1834175 53.3758057,24.8165825 52.9852814,25.2071068 C52.5947571,25.5976311 51.9615921,25.5976311 51.5710678,25.2071068 L51,24.636039 L51,33 C51,33.2761424 50.8880712,33.5261424 50.7071068,33.7071068 C50.5261424,33.8880712 50.2761424,34 50,34 L39,34 C38.4477153,34 38,33.5522847 38,33 L38,24.636039 Z M39.9497904,22.6862485 C39.9823697,22.784927 40,22.8904046 40,23 L40,32 L49,32 L49,23 C49,22.8904046 49.0176303,22.784927 49.0502096,22.6862485 L44.5,18.136039 L39.9497904,22.6862485 Z" id="icon-home-blue"></path>
            </g>
        </g>
    </g>
</svg>