<?xml version="1.0" encoding="UTF-8"?>
<svg width="22px" height="19px" viewBox="0 0 22 19" version="1.1" xmlns="http://www.w3.org/2000/svg" xmlns:xlink="http://www.w3.org/1999/xlink">
    <!-- Generator: Sketch 48.2 (47327) - http://www.bohemiancoding.com/sketch -->
    <title>icon forum</title>
    <desc>Created with Sketch.</desc>
    <defs></defs>
    <g id="01_Zernovozam" stroke="none" stroke-width="1" fill="none" fill-rule="evenodd" transform="translate(-33.000000, -436.000000)">
        <g id="sidebar" fill="#64C7FC" fill-rule="nonzero">
            <g id="menu" transform="translate(0.000000, 202.000000)">
                <path d="M48,248 L53,250.168483 L53,241 C53,240.447715 53.4477153,240 54,240 C54.5522847,240 55,240.447715 55,241 L55,252 L54.8731518,252 C54.7020477,252.305607 54.3751482,252.512183 54,252.512183 C53.8631176,252.512183 53.7276925,252.484081 53.6021119,252.429617 L48,250 L40,250 C39.4477153,250 39,249.552285 39,249 C39,248.447715 39.4477153,248 40,248 L48,248 Z M35,234 L47,234 C48.1045695,234 49,234.895431 49,236 L49,245 C49,245.552285 48.5522847,246 48,246 L40,246 L34.3939193,248.402606 C33.8862895,248.620162 33.2984106,248.38501 33.080855,247.87738 C33.0275077,247.752903 33,247.618888 33,247.483461 L33,236 C33,234.895431 33.8954305,234 35,234 Z M39.5894846,244 L40,244 L47,244 L47,236 L35,236 L35,245.966922 L39.5894846,244 Z M38,241 C37.4477153,241 37,240.552285 37,240 C37,239.447715 37.4477153,239 38,239 C38.5522847,239 39,239.447715 39,240 C39,240.552285 38.5522847,241 38,241 Z M41,241 C40.4477153,241 40,240.552285 40,240 C40,239.447715 40.4477153,239 41,239 C41.5522847,239 42,239.447715 42,240 C42,240.552285 41.5522847,241 41,241 Z M44,241 C43.4477153,241 43,240.552285 43,240 C43,239.447715 43.4477153,239 44,239 C44.5522847,239 45,239.447715 45,240 C45,240.552285 44.5522847,241 44,241 Z" id="icon-forum"></path>
            </g>
        </g>
    </g>
</svg>