<?xml version="1.0" encoding="UTF-8"?>
<svg width="21px" height="15px" viewBox="0 0 21 15" version="1.1" xmlns="http://www.w3.org/2000/svg" xmlns:xlink="http://www.w3.org/1999/xlink">
    <!-- Generator: Sketch 48.2 (47327) - http://www.bohemiancoding.com/sketch -->
    <title>icon track</title>
    <desc>Created with Sketch.</desc>
    <defs></defs>
    <g id="07_Your-Trucks" stroke="none" stroke-width="1" fill="none" fill-rule="evenodd" transform="translate(-388.000000, -437.000000)">
        <g id="Table" transform="translate(368.000000, 304.000000)" fill="#289CF9" fill-rule="nonzero">
            <g id="Line-1" transform="translate(0.000000, 128.000000)">
                <path d="M32,16 L32,7 L22,7 L22,16 C22.0565182,16 22.1119413,16.0046887 22.1659016,16.0136984 C22.5738454,14.841356 23.6886681,14 25,14 C26.3062188,14 27.4174579,14.8348076 27.8292943,16 L32,16 Z M34,16 L35.1707057,16 C35.5825421,14.8348076 36.6937812,14 38,14 C38.233953,14 38.4616512,14.0267801 38.6801963,14.077442 L38.2151435,10 L34.0243226,10 L34,9.97596964 L34,16 Z M35.1707057,18 L27.8292943,18 C27.4174579,19.1651924 26.3062188,20 25,20 C23.6886681,20 22.5738454,19.158644 22.1659016,17.9863016 C22.1119413,17.9953113 22.0565182,18 22,18 L21,18 C20.7238576,18 20.4738576,17.8880712 20.2928932,17.7071068 C20.1119288,17.5261424 20,17.2761424 20,17 L20,6 C20,5.44771525 20.4477153,5 21,5 L33,5 C33.5522847,5 34,5.44771525 34,6 L34,8 L39.1075718,8 C39.6160108,8 40.0435138,8.38151578 40.1011303,8.88667965 L41.0159602,16.9076318 L40.9980173,16.8899045 C40.9993353,16.9264402 41,16.9631425 41,17 C41,18.6568542 39.6568542,20 38,20 C36.6937812,20 35.5825421,19.1651924 35.1707057,18 Z M25,18 C25.5522847,18 26,17.5522847 26,17 C26,16.4477153 25.5522847,16 25,16 C24.4477153,16 24,16.4477153 24,17 C24,17.5522847 24.4477153,18 25,18 Z M38,18 C38.5522847,18 39,17.5522847 39,17 C39,16.4477153 38.5522847,16 38,16 C37.4477153,16 37,16.4477153 37,17 C37,17.5522847 37.4477153,18 38,18 Z" id="icon-track"></path>
            </g>
        </g>
    </g>
</svg>