<?xml version="1.0" encoding="UTF-8"?>
<svg width="21px" height="15px" viewBox="0 0 21 15" version="1.1" xmlns="http://www.w3.org/2000/svg" xmlns:xlink="http://www.w3.org/1999/xlink">
    <!-- Generator: Sketch 48.2 (47327) - http://www.bohemiancoding.com/sketch -->
    <title>icon Truck tick</title>
    <desc>Created with Sketch.</desc>
    <defs></defs>
    <g id="07_Your-Trucks" stroke="none" stroke-width="1" fill="none" fill-rule="evenodd" transform="translate(-1115.000000, -527.000000)">
        <g id="Table" transform="translate(368.000000, 304.000000)" fill="#289CF9" fill-rule="nonzero">
            <g id="Line-1" transform="translate(0.000000, 128.000000)">
                <g id="Menu" transform="translate(20.000000, 82.000000)">
                    <g id="Button-Busy" transform="translate(707.000000, 0.000000)">
                        <path d="M20.0048085,16.1004106 C19.9981637,16.0339595 19.9982277,15.9672265 20.0048085,15.901247 L20.0048085,14 C20.0048085,13.989252 20.0049781,13.9785436 20.0053147,13.9678773 L20.0053147,15.8962964 C20.0347442,15.6153268 20.1824042,15.3485066 20.4334586,15.175927 C20.8885815,14.8630667 21.511155,14.9783934 21.8240152,15.4335164 L23.005054,17.1515927 L25.2047071,13.4855042 C25.4888552,13.011924 26.1031155,12.8583589 26.5766957,13.1425071 C27.050276,13.4266552 27.2038411,14.0409155 26.9196929,14.5144958 L23.9196929,19.5144958 C23.5451684,20.1387033 22.6504959,20.1663633 22.238127,19.5664836 L20.1758692,16.5664836 C20.0781082,16.4242691 20.0221556,16.2657045 20.0053147,16.1053484 L20.0053147,21 C20.0053147,20.4477153 20.4529166,20 21.0050616,20 C21.5572066,20 22.0048085,20.4477153 22.0048085,21 L22.0048085,24.0000031 C22.0607291,24.0001417 22.1155709,24.0048702 22.1689772,24.0138319 C22.5764699,22.8414199 23.6901989,22 25.0002531,22 C26.3051496,22 27.4152637,22.8348076 27.8266832,24 L32.0048085,24 L32.0048085,16.0115135 L31.9931668,16 L32.0048085,16 L32.0048085,15 L29.0053147,15 C29.0022809,14.9999864 28.9992439,15 28.9962038,15 C28.4444781,15 27.9972161,14.5522847 27.9972161,14 C27.9972161,13.4477153 28.4444781,13 28.9962038,13 C28.9992439,13 29.0022809,13.0000136 29.0053147,13.0000407 L33.0048085,13 C33.5570933,13 34.0048085,13.4477153 34.0048085,14 L34.0048085,16 L39.0925376,16 C39.6010201,16 40.0285452,16.3815792 40.086109,16.8867929 L41,24.9076318 L40.9820752,24.8899045 C40.9833919,24.9264402 40.9840559,24.9631425 40.9840559,25 C40.9840559,26.6568542 39.6422699,28 37.9870929,28 C36.6821964,28 35.5720822,27.1651924 35.1606628,26 L27.8266832,26 C27.4152637,27.1651924 26.3051496,28 25.0002531,28 C23.6901989,28 22.5764699,27.1585801 22.1689772,25.9861681 C22.1147655,25.995265 22.0590746,26 22.0022777,26 L21.0053147,26 C21.0052303,26 21.005146,26 21.0050616,26 C21.0049773,26 21.0048929,26 21.0048085,26 C20.4525238,26 20.0048085,25.5522847 20.0048085,25 L20.0048085,16.100415 Z M35.1606628,24 C35.5720822,22.8348076 36.6821964,22 37.9870929,22 C38.2208091,22 38.4482767,22.0267801 38.6666006,22.077442 L38.2020186,18 L34.0154402,18 L34.0048085,17.9894855 L34.0048085,24 L35.1606628,24 Z M25.0002531,26 C25.5519787,26 25.9992408,25.5522847 25.9992408,25 C25.9992408,24.4477153 25.5519787,24 25.0002531,24 C24.4485274,24 24.0012654,24.4477153 24.0012654,25 C24.0012654,25.5522847 24.4485274,26 25.0002531,26 Z M37.9870929,26 C38.5388185,26 38.9860806,25.5522847 38.9860806,25 C38.9860806,24.4477153 38.5388185,24 37.9870929,24 C37.4353672,24 36.9881052,24.4477153 36.9881052,25 C36.9881052,25.5522847 37.4353672,26 37.9870929,26 Z" id="icon-Truck-tick"></path>
                    </g>
                </g>
            </g>
        </g>
    </g>
</svg>