<?xml version="1.0" encoding="UTF-8"?>
<svg width="12px" height="12px" viewBox="0 0 12 12" version="1.1" xmlns="http://www.w3.org/2000/svg" xmlns:xlink="http://www.w3.org/1999/xlink">
    <!-- Generator: sketchtool 49 (51002) - http://www.bohemiancoding.com/sketch -->
    <title>8D235777-E3F4-4704-A871-D91335CF512A</title>
    <desc>Created with sketchtool.</desc>
    <defs></defs>
    <g id="Home" stroke="none" stroke-width="1" fill="none" fill-rule="evenodd">
        <g id="09_Timeslots" transform="translate(-603.000000, -1709.000000)" fill="#D42020">
            <g id="Table" transform="translate(368.000000, 1579.000000)">
                <g id="Line-1" transform="translate(0.000000, 124.000000)">
                    <path d="M242.363961,11.9497475 L246.606602,16.1923882 C246.997126,16.5829124 246.997126,17.2160774 246.606602,17.6066017 C246.216077,17.997126 245.582912,17.997126 245.192388,17.6066017 L240.949747,13.363961 L236.707107,17.6066017 C236.316582,17.997126 235.683418,17.997126 235.292893,17.6066017 C234.902369,17.2160774 234.902369,16.5829124 235.292893,16.1923882 L239.535534,11.9497475 L235.292893,7.70710678 C234.902369,7.31658249 234.902369,6.68341751 235.292893,6.29289322 C235.683418,5.90236893 236.316582,5.90236893 236.707107,6.29289322 L240.949747,10.5355339 L245.192388,6.29289322 C245.582912,5.90236893 246.216077,5.90236893 246.606602,6.29289322 C246.997126,6.68341751 246.997126,7.31658249 246.606602,7.70710678 L242.363961,11.9497475 Z" id="Icon-cross"></path>
                </g>
            </g>
        </g>
    </g>
</svg>