<?xml version="1.0" encoding="UTF-8"?>
<svg width="36px" height="48px" viewBox="0 0 36 48" version="1.1" xmlns="http://www.w3.org/2000/svg" xmlns:xlink="http://www.w3.org/1999/xlink">
    <!-- Generator: Sketch 48.2 (47327) - http://www.bohemiancoding.com/sketch -->
    <title>icon shopping-list</title>
    <desc>Created with Sketch.</desc>
    <defs></defs>
    <g id="01_Zernovozam" stroke="none" stroke-width="1" fill="none" fill-rule="evenodd" transform="translate(-836.000000, -2584.000000)">
        <g id="App" transform="translate(373.000000, 2192.000000)" fill="#64C7FC" fill-rule="nonzero">
            <path d="M496,398 C497.653,398 499,399.347 499,401 L499,437 C499,438.653 497.653,440 496,440 L466,440 C464.347,440 463,438.653 463,437 L463,401 C463,399.347 464.347,398 466,398 L472,398 L472,396.5 C472,395.672 472.672,395 473.5,395 L476.755,395 C477.376,393.254 479.044,392 481,392 C482.956,392 484.624,393.254 485.245,395 L488.5,395 C489.328,395 490,395.672 490,396.5 L490,398 L496,398 Z M475,398 L475,401 L487,401 L487,398 L484,398 C483.172,398 482.5,397.328 482.5,396.5 C482.5,395.672 481.828,395 481,395 C480.172,395 479.5,395.672 479.5,396.5 C479.5,397.328 478.828,398 478,398 L475,398 Z M496,437 L496,401 L490,401 L490,402.5 C490,403.328 489.328,404 488.5,404 L473.5,404 C472.672,404 472,403.328 472,402.5 L472,401 L466,401 L466,437 L496,437 Z M480.561195,410.440289 C481.146268,411.025338 481.146268,411.976417 480.561195,412.561466 L474.560445,418.561964 C474.266408,418.852988 473.88236,419 473.498312,419 C473.114264,419 472.730216,418.852988 472.43918,418.558963 L469.438805,415.558714 C468.853732,414.973666 468.853732,414.022587 469.438805,413.437538 C470.023878,412.85249 470.974997,412.85249 471.56007,413.437538 L473.498312,415.378699 L478.43693,410.437289 C479.025003,409.852241 479.976122,409.855241 480.561195,410.440289 Z M480.561195,422.440289 C481.146268,423.025338 481.146268,423.976417 480.561195,424.561466 L474.560445,430.561964 C474.266408,430.852988 473.88236,431 473.498312,431 C473.114264,431 472.730216,430.852988 472.43918,430.561964 L469.438805,427.561715 C468.853732,426.976666 468.853732,426.025587 469.438805,425.440538 C470.023878,424.85549 470.974997,424.85549 471.56007,425.440538 L473.498312,427.378699 L478.43693,422.437289 C479.025003,421.852241 479.976122,421.855241 480.561195,422.440289 Z M491.5,413 C492.328,413 493,413.672 493,414.5 C493,415.328 492.328,416 491.5,416 L485.5,416 C484.672,416 484,415.328 484,414.5 C484,413.672 484.672,413 485.5,413 L491.5,413 Z M491.5,425 C492.328,425 493,425.672 493,426.5 C493,427.328 492.328,428 491.5,428 L485.5,428 C484.672,428 484,427.328 484,426.5 C484,425.672 484.672,425 485.5,425 L491.5,425 Z" id="icon-shopping-list"></path>
        </g>
    </g>
</svg>