<?xml version="1.0" encoding="UTF-8"?>
<svg width="24px" height="30px" viewBox="0 0 24 30" version="1.1" xmlns="http://www.w3.org/2000/svg" xmlns:xlink="http://www.w3.org/1999/xlink">
    <!-- Generator: Sketch 48.2 (47327) - http://www.bohemiancoding.com/sketch -->
    <title>icon aplle</title>
    <desc>Created with Sketch.</desc>
    <defs></defs>
    <g id="01_Zernovozam" stroke="none" stroke-width="1" fill="none" fill-rule="evenodd" transform="translate(-1054.000000, -2703.000000)">
        <g id="App" transform="translate(373.000000, 2192.000000)" fill="#64C7FC">
            <g id="apple" transform="translate(647.000000, 496.000000)">
                <path d="M47.2422044,17.6106562 C49.1765349,15.0126882 51.8656688,15 51.8656688,15 C51.8656688,15 52.2656293,17.4424658 50.3440236,19.795478 C48.292213,22.3079993 45.9599547,21.896793 45.9599547,21.896793 C45.9599547,21.896793 45.5220838,19.9208974 47.2422044,17.6106562 Z M46.2060031,23.6078896 C47.2011524,23.6078896 49.0479668,22.2138394 51.4519275,22.2138394 C55.5899481,22.2138394 57.2178534,25.2144277 57.2178534,25.2144277 C57.2178534,25.2144277 54.03393,26.8731496 54.03393,30.8982717 C54.03393,35.4388406 58.0001128,37.0036888 58.0001128,37.0036888 C58.0001128,37.0036888 55.2275548,44.9558615 51.4827363,44.9558615 C49.7626157,44.9558615 48.4255068,43.774649 46.6131444,43.774649 C44.76633,43.774649 42.9335604,45 41.7399357,45 C38.3202864,45 34,37.4565532 34,31.3928895 C34,25.4270428 37.6567744,22.2975689 41.086746,22.2975689 C43.3164665,22.2975689 45.0468304,23.6078896 46.2060031,23.6078896 Z" id="icon-aplle"></path>
            </g>
        </g>
    </g>
</svg>