<?xml version="1.0" encoding="UTF-8"?>
<svg width="33px" height="48px" viewBox="0 0 33 48" version="1.1" xmlns="http://www.w3.org/2000/svg" xmlns:xlink="http://www.w3.org/1999/xlink">
    <!-- Generator: Sketch 48.2 (47327) - http://www.bohemiancoding.com/sketch -->
    <title>Placeholder Darck</title>
    <desc>Created with Sketch.</desc>
    <defs></defs>
    <g id="03_Request-map" stroke="none" stroke-width="1" fill="none" fill-rule="evenodd" transform="translate(-1050.000000, -1098.000000)">
        <g id="Map" transform="translate(280.000000, 697.000000)" fill-rule="nonzero">
            <g id="Placeholder-Darck" transform="translate(770.000000, 401.000000)">
                <path d="M16,29.4976586 C16.18213,29.4924541 16.3645714,29.4891907 16.5472301,29.4879096 C19.9938862,29.464415 23.3539751,30.1259858 26.130243,31.3527803 C29.0619697,32.5798649 31.0580774,34.2179113 31.6312871,35.9652607 C31.9700112,36.9978139 31.727939,37.9839098 30.8794774,38.8966696 L18.2470702,47.7022085 C17.7876857,47.9709943 17.0322339,48 16.7287983,48 C16.5720295,48 16.2947564,47.9922649 16,47.9477683 L16,38.7275127 C16.2387594,38.7381812 16.481905,38.7436523 16.7288232,38.7436523 C20.5313404,38.7437025 23.439222,37.4460471 23.2110527,35.8510437 C22.9828834,34.2560403 20.0749946,32.9584351 16.728816,32.9584351 C16.4832205,32.9584351 16.2399865,32.9654247 16,32.9790087 L16,29.4976586 Z" id="icon-shadow" fill="#1F2740" opacity="0.5"></path>
                <path d="M1.78205794,24.3967455 C0.583963154,21.9986665 -0.0155767784,19.4074326 0.000307520443,16.6939884 C0.0530089152,7.61545681 7.3496894,0.12728836 16.2655833,0.00156845275 C20.7188512,-0.0593486707 24.9173546,1.65598226 28.0855949,4.83683379 C31.2548204,8.01843737 33,12.2655892 33,16.7961436 C33,19.4733635 32.4004601,22.0301278 31.2178802,24.3967455 L17.8359125,47.2278817 C17.4273535,47.9247937 16.7656309,48 16.5000306,48 C16.2343072,48 15.5725846,47.9247937 15.1641488,47.2278817 L1.78205794,24.3967455 Z M16.500065,9 C12.3644216,9 9,12.3644507 9,16.5 C9,20.6355493 12.3644216,24 16.500065,24 C20.6355784,24.0001301 24,20.6355493 24,16.5 C24,12.3644507 20.6355784,9 16.500065,9 Z" id="icon-Point" fill="#64C7FC"></path>
            </g>
        </g>
    </g>
</svg>