<?xml version="1.0" encoding="UTF-8"?>
<svg width="160px" height="41px" viewBox="0 0 160 41" version="1.1" xmlns="http://www.w3.org/2000/svg" xmlns:xlink="http://www.w3.org/1999/xlink">
    <!-- Generator: Sketch 48.2 (47327) - http://www.bohemiancoding.com/sketch -->
    <title>moroso</title>
    <desc>Created with Sketch.</desc>
    <defs></defs>
    <g id="01_Zernovozam" stroke="none" stroke-width="1" fill="none" fill-rule="evenodd" transform="translate(-420.000000, -3819.000000)">
        <g id="Clients" transform="translate(420.000000, 3700.000000)" fill="#C3CADB" fill-rule="nonzero">
            <g id="Logos" transform="translate(0.000000, 104.000000)">
                <g id="moroso" transform="translate(0.000000, 15.000000)">
                    <path d="M153.312542,0.391412429 C155.134915,4.85514124 157.320678,10.2291525 159.323842,15.1484746 L151.671864,37.9218079 L149.849492,39.3780791 L129.171525,39.2876836 L127.713446,37.4653107 L125.345989,39.2876836 L107.491073,39.1954802 L105.668701,37.3731073 L103.938531,39.1954802 L85.6280226,39.3771751 C84.8985311,38.9233898 84.4429379,37.4653107 83.0770621,38.0122034 C80.8912994,40.5613559 76.7014689,40.379661 73.6045198,39.3771751 C72.9663277,38.9233898 72.9663277,38.2842938 72.420339,38.0122034 C70.1423729,40.4718644 66.0438418,40.379661 62.8555932,39.2867797 C62.5816949,38.6494915 61.9444068,38.1016949 61.3984181,37.4644068 C60.0316384,38.1938983 59.120452,39.7423729 57.4815819,39.7423729 L42.0863277,39.6501695 L39.7179661,37.1010169 C37.8955932,41.7464407 32.9771751,38.7389831 29.6063277,39.560678 L28.239548,37.8287006 C26.1441808,41.0169492 21.8630508,38.9233898 18.5835028,39.560678 C17.8549153,37.7383051 16.6707345,38.9233898 15.759548,39.560678 C10.2029379,38.9233898 6.46779661,42.1098305 2.55096045,34.7317514 L0.45559322,29.0838418 L9.47435028,2.02937853 L11.2967232,0.57220339 L153.312542,0.391412429 Z M11.4784181,28.0840678 C11.4784181,28.0840678 16.4881356,12.2332203 16.8515254,11.5055367 C18.3096045,7.67909605 22.3177401,9.50146893 21.4978531,12.0515254 C20.9509605,13.7816949 16.5785311,27.9927684 16.5785311,27.9927684 L22.3177401,27.9927684 C22.3177401,27.9927684 27.4187571,12.2332203 27.6926554,11.6863277 C29.5141243,7.67819209 32.9753672,10.1378531 32.4293785,11.960226 C32.2476836,12.5975141 26.8727684,28.0840678 26.8727684,28.0840678 L33.6144633,28.1744633 C33.6144633,28.1744633 40.2639548,10.0474576 41.0838418,7.67819209 C41.9037288,5.40112994 42.0863277,3.85265537 40.3552542,3.39706215 L21.2248588,3.39706215 C13.2094915,3.66915254 14.5753672,2.75887006 12.2983051,4.85423729 L5.1019209,26.2616949 L4.55502825,28.0840678 L11.4784181,28.0840678 Z M49.2818079,3.76135593 C47.9159322,3.85265537 46.5491525,3.03276836 45.3649718,5.94711864 C44.180791,8.77107345 38.6241808,25.440904 38.4415819,26.1703955 C38.259887,26.899887 37.3487006,28.0840678 39.7170621,28.1744633 C41.9950282,28.2666667 52.4700565,28.1744633 52.4700565,28.1744633 C54.2011299,28.1744633 55.2940113,28.2666667 55.7496045,26.6259887 C56.2051977,25.0775141 61.9444068,8.04248588 62.399096,7.04090395 C62.7633898,6.03841808 63.5832768,3.85265537 60.759322,3.76135593 C58.0266667,3.6700565 49.2818079,3.76135593 49.2818079,3.76135593 Z M67.3184181,5.76542373 C66.7724294,7.13129944 60.0307345,28.0840678 60.0307345,28.0840678 L66.2255367,28.0840678 C66.2255367,28.0840678 67.5923164,24.8036158 68.1383051,22.9812429 C68.6842938,21.0693785 72.7846328,19.52 72.419435,22.799548 C72.0551412,25.9877966 71.4178531,26.9911864 71.4178531,27.4449718 C71.4178531,27.8101695 71.5091525,28.2657627 72.0551412,28.3561582 C72.6020339,28.4483616 77.7943503,28.3561582 77.7943503,28.3561582 C77.7943503,28.3561582 80.3453107,21.2519774 79.7984181,19.7938983 C79.2524294,18.3367232 78.7968362,18.2454237 78.7968362,18.2454237 C78.7968362,18.2454237 80.1636158,18.1541243 81.6216949,15.2388701 C82.9884746,12.3236158 84.6282486,6.4940113 84.7186441,5.85672316 C84.8108475,5.21943503 85.8115254,3.76135593 82.440678,3.76135593 L69.1416949,3.76135593 C68.0488136,3.76135593 67.8653107,4.12564972 67.3184181,5.76542373 Z M93.1905085,3.76135593 C91.9141243,3.85265537 90.5473446,3.03276836 89.2727684,5.94711864 C88.0876836,8.77107345 82.6223729,25.440904 82.439774,26.1703955 C82.2571751,26.899887 81.3468927,28.0840678 83.6248588,28.1744633 C85.9941243,28.2666667 96.4691525,28.1744633 96.4691525,28.1744633 C98.1089266,28.1744633 99.2922034,28.2666667 99.7477966,26.6259887 C100.205198,25.0775141 105.943503,8.04248588 106.306893,7.04090395 C106.67209,6.03841808 107.491977,3.85265537 104.758418,3.76135593 C101.935367,3.6700565 93.1905085,3.76135593 93.1905085,3.76135593 Z M137.460791,3.76135593 C136.186215,3.85265537 134.728136,3.03276836 133.543051,5.94711864 C132.359774,8.77107345 126.894463,25.440904 126.711864,26.1703955 C126.529266,26.899887 125.52678,28.0840678 127.896949,28.1744633 C130.173107,28.2666667 140.741243,28.1744633 140.741243,28.1744633 C142.379209,28.1744633 143.47209,28.2666667 143.927684,26.6259887 C144.383277,25.0775141 150.214689,8.04248588 150.578079,7.04090395 C150.941469,6.03841808 151.763164,3.85265537 148.938305,3.76135593 C146.20565,3.6700565 137.460791,3.76135593 137.460791,3.76135593 Z M111.680904,5.9480226 C111.680904,5.9480226 110.588927,9.77355932 109.76904,11.5950282 C108.949153,13.4164972 110.315932,14.1450847 110.315932,14.1450847 C110.315932,14.1450847 115.23435,20.0659887 115.780339,20.9771751 C116.328136,21.8883616 116.146441,23.5290395 114.142373,23.2551412 C112.047006,22.9812429 112.865989,21.5249718 113.047684,20.4311864 L106.762486,20.4311864 L104.850621,26.1703955 C104.668927,26.899887 103.75774,28.0840678 106.035706,28.1744633 C108.403164,28.2666667 118.88,28.1744633 118.88,28.1744633 C120.51887,28.1744633 121.611751,28.2657627 122.158644,26.6259887 C122.158644,26.6259887 124.163616,19.8851977 124.43661,19.1566102 C124.709605,18.4280226 123.616723,17.4255367 123.251525,17.0612429 C123.251525,17.0612429 118.333107,11.8698305 118.240904,11.5959322 C118.150508,11.3229379 116.783729,9.77355932 118.787797,9.31887006 C120.699661,8.7719774 121.064859,10.0474576 120.427571,11.7785311 L126.803164,11.7785311 C126.803164,11.7785311 128.442938,7.77039548 128.716836,7.04180791 C129.080226,6.03932203 129.901017,3.85355932 127.168362,3.76225989 C124.343503,3.67096045 115.598644,3.76225989 115.598644,3.76225989 C114.324068,3.85355932 112.957288,3.03276836 111.680904,5.9480226 Z" id="Combined-Shape"></path>
                    <path d="M50.2833898,11.5959322 C49.919096,12.2341243 47.459435,19.4305085 47.0951412,20.6146893 C46.2752542,23.3473446 49.8277966,23.619435 50.9215819,21.0702825 C52.0144633,18.6106215 53.5629379,13.7825989 54.2011299,12.2341243 C55.1123164,9.95615819 51.7414689,8.4980791 50.2833898,11.5959322 Z M72.3290395,11.5959322 C71.9647458,12.2341243 72.420339,11.7785311 72.0551412,12.8714124 C71.1448588,15.6040678 74.6061017,15.9683616 75.6989831,13.4183051 C76.8831638,10.9586441 75.6076836,13.7825989 76.2449718,12.2341243 C77.1570621,9.95615819 73.7862147,8.4980791 72.3290395,11.5959322 Z M94.2833898,11.5959322 C93.9181921,12.2341243 91.4585311,19.4305085 91.0951412,20.6146893 C90.2761582,23.3473446 93.7364972,23.619435 94.920678,21.0702825 C96.0135593,18.6106215 97.5620339,13.7825989 98.1089266,12.2341243 C99.1105085,9.95615819 95.739661,8.4980791 94.2833898,11.5959322 Z M138.464181,11.5959322 C138.190282,12.2341243 135.639322,19.4305085 135.275932,20.6146893 C134.455141,23.3473446 138.008588,23.619435 139.101469,21.0702825 C140.286554,18.6106215 141.742825,13.7825989 142.380113,12.2341243 C143.291299,9.95615819 140.012655,8.4980791 138.464181,11.5959322 Z" id="Shape"></path>
                </g>
            </g>
        </g>
    </g>
</svg>