<?xml version="1.0" encoding="UTF-8"?>
<svg width="160px" height="40px" viewBox="0 0 160 40" version="1.1" xmlns="http://www.w3.org/2000/svg" xmlns:xlink="http://www.w3.org/1999/xlink">
    <!-- Generator: Sketch 48.2 (47327) - http://www.bohemiancoding.com/sketch -->
    <title>citroen-xsara</title>
    <desc>Created with Sketch.</desc>
    <defs></defs>
    <g id="01_Zernovozam" stroke="none" stroke-width="1" fill="none" fill-rule="evenodd" transform="translate(-1140.000000, -3819.000000)">
        <g id="Clients" transform="translate(420.000000, 3700.000000)" fill="#C3CADB" fill-rule="nonzero">
            <g id="Logos" transform="translate(0.000000, 104.000000)">
                <g id="citroen-xsara" transform="translate(720.000000, 15.000000)">
                    <path d="M15.8763636,19.04 C15.8763636,19.04 3.08,28.7418182 0.269090909,32.0690909 C0.269090909,32.0690909 -0.458181818,33.2109091 0.476363636,34.6690909 C1.41090909,36.12 3.18181818,37.1672727 4.11636364,37.3745455 C5.05454545,37.5854545 5.88727273,37.1636364 7.13818182,35.92 C7.13818182,35.92 16.1381818,27.3854545 20.6145455,24.3745455 C20.6145455,24.3745455 21.2872727,23.5381818 22.1236364,24.7854545 C22.1236364,24.7854545 37.7272727,46.3236364 67.1745455,37.6872727 C67.1745455,37.6872727 72.1163636,33.3418182 68.0072727,33.7345455 C68.0072727,33.7345455 44.7272727,42.4981818 27.8690909,20.9090909 C27.8690909,20.9090909 26.4654545,19.3381818 28.6472727,18.0654545 C28.6472727,18.0654545 38.9745455,10.4036364 56.5054545,4.23636364 C56.5054545,4.23636364 59.2618182,3.66545455 59.5745455,1.37818182 C59.5745455,1.37818182 60.3054545,-0.498181818 57.7018182,0.127272727 C57.7018182,0.127272727 40.4290909,4.31272727 23.5745455,14.1709091 C23.5745455,14.1709091 22.4327273,13.7527273 21.8036364,13.0290909 L14.2109091,2.83272727 C14.2109091,2.83272727 12.3381818,-0.08 10.6763636,2.93454545 C10.6763636,2.93454545 8.17454545,7.09818182 9.73818182,9.49090909 L15.8763636,17.3963636 C15.8763636,17.3963636 16.9163636,17.8036364 15.8763636,19.04 Z" id="Shape"></path>
                    <path d="M40.7454545,24.0581818 C40.7454545,24.0581818 51.8218182,14.6945455 68.2872727,11.88 C68.2872727,11.88 75,11.5709091 72.1890909,17.64 C72.1890909,17.64 67.8181818,28.8145455 60.3272727,28.9672727 C60.3272727,28.9672727 53.0690909,29.2836364 51.9018182,23.7454545 C51.9018182,23.7454545 51.9018182,22.1090909 53.8509091,21.4545455 C55.8,20.9054545 56.5818182,20.8072727 57.7527273,22.7345455 C58.9236364,24.6836364 58.6072727,25.0690909 60.0145455,25.0690909 C61.4181818,25.0690909 63.4472727,22.8436364 64.9309091,18.0618182 C65.9454545,14.7709091 63.4509091,16.0181818 61.1854545,16.64 C61.1854545,16.64 48.7781818,21.2618182 42.0690909,27.4872727 C42.0690909,27.4872727 40.8181818,28.8109091 39.5709091,27.3272727 C38.3236364,25.8545455 40.12,24.5236364 40.7454545,24.0581818 Z M98.28,19.4109091 C98.28,19.8981818 98.9018182,23.4327273 99.9454545,23.4327273 C100.985455,23.4327273 101.923636,22.6072727 101.923636,22.6072727 C104.109091,20.7454545 104.003636,23.2254545 104.003636,23.2254545 C102.650909,26.7563636 98.9018182,28.4218182 97.6581818,28.4218182 C96.4109091,28.4218182 94.9527273,28.84 93.08,26.6618182 C91.2072727,24.4727273 90.2618182,24.4727273 90.2618182,24.4727273 C89.0181818,25.3054545 82.88,28.7418182 78.7127273,28.7418182 C73.0981818,28.7418182 73.6218182,25.2 73.6218182,25.2 C74.8690909,12.6109091 92.7709091,12.4 92.7709091,12.4 C98.3890909,11.4654545 98.28,18.8072727 98.28,19.4109091 Z M85.4981818,17.1927273 C85.4981818,17.1927273 79.4545455,20.88 81.2363636,24.4763636 C81.2363636,24.4763636 88.5090909,26.1418182 91.5127273,17.0872727 C92.5127273,14.08 85.4981818,17.1927273 85.4981818,17.1927273 Z M151.861818,19.9563636 C151.861818,20.4145455 152.487273,23.9854545 153.527273,23.9854545 C154.570909,23.9854545 157.694545,21.6363636 157.694545,21.6363636 C159.88,19.7090909 159.770909,22.2909091 159.770909,22.2909091 C158.421818,25.8290909 152.487273,28.9781818 151.24,28.9781818 C149.989091,28.9781818 148.530909,29.3963636 146.661818,27.2145455 C144.789091,25.0290909 143.854545,25.0290909 143.854545,25.0290909 C142.607273,25.8618182 136.469091,29.2981818 132.305455,29.2981818 C126.683636,29.2981818 127.203636,25.7527273 127.203636,25.7527273 C128.454545,13.1672727 146.352727,12.9527273 146.352727,12.9527273 C151.963636,12.0218182 151.861818,19.4363636 151.861818,19.9563636 Z M139.065455,17.7272727 C139.065455,17.7272727 133.029091,21.3709091 134.8,25.0290909 C134.8,25.0290909 142.08,26.6945455 145.101818,17.6218182 C146.105455,14.6290909 139.065455,17.7272727 139.065455,17.7272727 Z M109.621818,16.36 C109.621818,16.36 104.938182,24.8945455 104.938182,26.9745455 C104.938182,29.0509091 106.08,30.4036364 110.661818,27.1818182 C110.661818,27.1818182 115.24,20.9890909 118.672727,18.9163636 C118.672727,18.9163636 120.749091,16.4654545 123.454545,18.8072727 C126.156364,21.2690909 127.141818,18.7636364 128.756364,17.1927273 C129.901818,16.0472727 126.472727,10.9490909 124.389091,12.3054545 C124.389091,12.3054545 119.396364,15.3236364 117.003636,17.1927273 C117.003636,17.1927273 115.650909,18.44 116.072727,16.36 C116.072727,16.36 117.734545,11.9890909 113.992727,13.3381818 C113.996364,13.3381818 111.076364,13.7563636 109.621818,16.36 Z" id="Shape"></path>
                </g>
            </g>
        </g>
    </g>
</svg>