<?xml version="1.0" encoding="UTF-8"?>
<svg width="160px" height="71px" viewBox="0 0 160 71" version="1.1" xmlns="http://www.w3.org/2000/svg" xmlns:xlink="http://www.w3.org/1999/xlink">
    <!-- Generator: Sketch 48.2 (47327) - http://www.bohemiancoding.com/sketch -->
    <title>danko</title>
    <desc>Created with Sketch.</desc>
    <defs></defs>
    <g id="01_Zernovozam" stroke="none" stroke-width="1" fill="none" fill-rule="evenodd" transform="translate(-900.000000, -3804.000000)">
        <g id="Clients" transform="translate(420.000000, 3700.000000)" fill-rule="nonzero">
            <g id="Logos" transform="translate(0.000000, 104.000000)">
                <g id="danko" transform="translate(480.000000, 0.000000)">
                    <path d="M149.251343,9.12955224 L148.460896,8.55880597 L79.9856716,0 L11.5104478,8.55880597 L10.72,9.12955224 C10.2829851,9.44477612 0,17.0770149 0,35.0710448 C0,53.0650746 10.2829851,60.6949254 10.72,61.0125373 L11.5104478,61.5832836 L79.9856716,70.1420896 L148.460896,61.5832836 L149.251343,61.0125373 C149.688358,60.6973134 159.971343,53.0626866 159.971343,35.0710448 C159.971343,17.079403 149.688358,9.44477612 149.251343,9.12955224 Z" id="Shape" fill="#C3CADB"></path>
                    <path d="M148.136119,10.6746269 L147.739701,10.3880597 L79.9856716,1.92 L12.2292537,10.3880597 L11.8352239,10.6746269 C11.4292537,10.9659701 1.90328358,18.041791 1.90328358,35.0710448 C1.90328358,52.1002985 11.4292537,59.1761194 11.8328358,59.4674627 L12.2292537,59.7540299 L79.9856716,68.2220896 L147.74209,59.7540299 L148.138507,59.4674627 C148.54209,59.1737313 158.06806,52.1002985 158.06806,35.0710448 C158.06806,18.041791 148.539701,10.9659701 148.136119,10.6746269 Z" id="Shape" fill="#FFFFFF"></path>
                    <path d="M79.9856716,3.83761194 L147.020896,12.2173134 C147.020896,12.2173134 156.162388,18.8202985 156.162388,35.0686567 C156.162388,51.319403 147.020896,57.9223881 147.020896,57.9223881 L79.9856716,66.3020896 L12.9504478,57.9223881 C12.9504478,57.9223881 3.80895522,51.319403 3.80895522,35.0686567 C3.80895522,18.8179104 12.9504478,12.2173134 12.9504478,12.2173134 L79.9856716,3.83761194 Z" id="Shape" fill="#C3CADB"></path>
                    <path d="M26.56,53.358806 C29.3277612,53.000597 32.1719403,52.4155224 34.5074627,50.7056716 C37.1462687,48.919403 38.3164179,46.2686567 38.3665672,42.7749254 L38.3665672,27.2453731 C38.3665672,23.9044776 37.8077612,20.4608955 34.3020896,18.2161194 C31.4077612,16.3032836 27.4722388,15.7420896 24.2220896,15.3098507 L21.76,15.0041791 L14.4740299,14.0083582 L14.4740299,54.9635821 L23.4889552,53.7408955 L26.56,53.358806 Z" id="Shape" fill="#FFFFFF"></path>
                    <path d="M23.4626866,22.1420896 C27.8304478,22.600597 29.3277612,22.958806 29.3802985,27.319403 L29.3802985,39.4077612 C29.5331343,44.3295522 29.480597,46.7247761 23.4626866,46.8035821 L23.4626866,22.1420896 Z" id="Shape" fill="#C3CADB"></path>
                    <path d="M48.1671642,50.9373134 C48.2173134,50.3761194 49.1820896,44.9456716 49.2346269,44.4608955 L50.961194,44.3319403 L56.2937313,44.1026866 C56.3438806,44.561194 57.4877612,49.6620896 57.5880597,50.1468657 L62.1325373,49.841194 L66.7032836,49.638209 C63.915871,39.387066 61.1313932,29.1351253 58.3498507,18.8823881 L52.9146269,18.4740299 L50.1970149,18.2447761 L47.5056716,17.9916418 C46.8202985,20.6686567 39.761194,48.9002985 39.0997015,51.8328358 L41.3349254,51.5797015 L45.8555224,51.121194 L48.1671642,50.9373134 Z" id="Shape" fill="#FFFFFF"></path>
                    <path d="M55.4292537,38.5671642 L50.199403,38.6674627 C50.3522388,37.4949254 52.8143284,24.2579104 52.8143284,24.2579104 L52.9146269,24.2579104 C53.0698507,25.4328358 55.2262687,37.4208955 55.4292537,38.5671642 Z" id="Shape" fill="#C3CADB"></path>
                    <path d="M84.8573134,49.3540299 L87.2644776,49.3540299 L89.6716418,49.4041791 L92.078806,49.480597 L94.4859701,49.5832836 L94.4859701,19.3886567 L89.9892537,19.5414925 L87.7397015,19.5916418 L85.5450746,19.6179104 C85.5450746,19.6179104 86.3904478,34.8680597 86.4429851,36.2197015 L86.2853731,36.2197015 L79.0113433,19.6179104 L74.1444776,19.5152239 L69.3301493,19.3623881 L69.3301493,49.6095522 L73.7743284,49.4567164 L76.0214925,49.4065672 L78.2686567,49.3802985 L77.4232836,32.7259701 L77.4758209,32.7259701 L77.4758209,32.6758209 L77.5283582,32.6758209 L84.8573134,49.3540299 Z M107.140299,50.2471642 L107.140299,42.4692537 C107.238209,42.2137313 109.031642,39.3074627 109.031642,39.3074627 C109.394627,40.2268657 113.786269,50.8346269 113.786269,50.8346269 L116.019104,51.0376119 L118.323582,51.2692537 L122.884776,51.7779104 C122.884776,51.7779104 115.195224,34.0274627 114.564776,32.5492537 L122.4,17.2489552 L120.191045,17.5020896 L117.984478,17.7313433 L115.77791,17.9343284 L113.595224,18.1635821 C113.110448,19.2358209 107.240597,31.321791 107.240597,31.321791 L107.142687,31.321791 L107.142687,18.7271642 L102.822687,19.0328358 L98.5313433,19.2883582 L98.5313433,49.6883582 L100.690149,49.7886567 L102.825075,49.9152239 L104.983881,50.0943284 L107.140299,50.2471642 Z M145.471045,25.2298507 C145.471045,17.3492537 141.585672,13.6262687 134.368955,14.6961194 C127.178507,15.7158209 123.152239,19.9235821 123.152239,26.6316418 L123.152239,40.7856716 C123.152239,48.6423881 126.037015,53.1032836 134.368955,54.2758209 C142.700896,55.5008955 145.471045,51.1402985 145.471045,41.9080597 L145.471045,25.2298507 Z" id="Shape" fill="#FFFFFF"></path>
                    <path d="M137.232239,42.24 C137.232239,44.4585075 137.04597,47.7229851 134.368955,47.4674627 C131.69194,47.2143284 131.367164,44.0262687 131.367164,41.9080597 L131.367164,26.7343284 C131.367164,24.4895522 131.69194,21.7361194 134.321194,21.480597 C137.04597,21.2274627 137.229851,24.0310448 137.229851,26.4023881 L137.229851,42.24 L137.232239,42.24 Z" id="Shape" fill="#C3CADB"></path>
                </g>
            </g>
        </g>
    </g>
</svg>