<?xml version="1.0" encoding="UTF-8"?>
<svg width="160px" height="33px" viewBox="0 0 160 33" version="1.1" xmlns="http://www.w3.org/2000/svg" xmlns:xlink="http://www.w3.org/1999/xlink">
    <!-- Generator: Sketch 48.2 (47327) - http://www.bohemiancoding.com/sketch -->
    <title>facebook-1</title>
    <desc>Created with Sketch.</desc>
    <defs></defs>
    <g id="01_Zernovozam" stroke="none" stroke-width="1" fill="none" fill-rule="evenodd" transform="translate(-660.000000, -3823.000000)">
        <g id="Clients" transform="translate(420.000000, 3700.000000)" fill="#C3CADB" fill-rule="nonzero">
            <g id="Logos" transform="translate(0.000000, 104.000000)">
                <g id="facebook-1" transform="translate(240.000000, 19.000000)">
                    <path d="M82.596129,15.9240553 C81.2807373,15.9240553 80.3325346,16.3553917 79.3710599,16.7948387 L79.3710599,26.7384332 C80.2919816,26.8261751 80.8199078,26.8261751 81.6936406,26.8261751 C84.8508756,26.8261751 85.2836866,25.3802765 85.2836866,23.3614747 L85.2836866,18.6123502 C85.2836866,17.1214747 84.7889401,15.9240553 82.596129,15.9240553 Z M61.6280184,15.3813825 C59.4374194,15.3813825 58.9375115,16.5839631 58.9375115,18.0733641 L58.9375115,18.9102304 L64.315576,18.9102304 L64.315576,18.0733641 C64.315576,16.5839631 63.8156682,15.3813825 61.6280184,15.3813825 Z M21.0086636,25.7312442 C21.0086636,26.9094931 21.5646083,27.5214747 22.7915207,27.5214747 C24.1076498,27.5214747 24.8870046,27.0923502 25.8477419,26.6514286 L25.8477419,24.2927189 L22.9699539,24.2927189 C21.6073733,24.2927189 21.0086636,24.5463594 21.0086636,25.7312442 Z M102.992811,15.9240553 C100.798525,15.9240553 100.038341,17.1214747 100.038341,18.6123502 L100.038341,24.0530876 C100.038341,25.5476498 100.798525,26.7487558 102.992811,26.7487558 C105.181198,26.7487558 105.947281,25.5476498 105.947281,24.0530876 L105.947281,18.6123502 C105.946544,17.1214747 105.180461,15.9240553 102.992811,15.9240553 Z M10.2554839,31.8318894 L3.80534562,31.8318894 L3.80534562,16.2197235 L0.582488479,16.2197235 L0.582488479,10.8401843 L3.80608295,10.8401843 L3.80608295,7.60921659 C3.80608295,3.21990783 5.62506912,0.610506912 10.7952074,0.610506912 L15.0997235,0.610506912 L15.0997235,5.99152074 L12.4092166,5.99152074 C10.3963134,5.99152074 10.2635945,6.74359447 10.2635945,8.14672811 L10.2554839,10.839447 L15.1292166,10.839447 L14.5592627,16.2189862 L10.2554839,16.2189862 L10.2554839,31.8318894 Z M32.2993548,31.8724424 L26.9235023,31.8724424 L26.6912442,30.5128111 C24.236682,31.8724424 22.0460829,32.0929032 20.6009217,32.0929032 C16.6584332,32.0929032 14.56,29.4591705 14.56,25.8167742 C14.56,21.5196313 17.0086636,19.9859908 21.3891244,19.9859908 L25.8477419,19.9859908 L25.8477419,19.0569585 C25.8477419,16.8634101 25.5963134,16.2197235 22.2230415,16.2197235 L16.7078341,16.2197235 L17.2468203,10.8401843 L23.2752074,10.8401843 C30.6764977,10.8401843 32.2993548,13.1782488 32.2993548,19.1004608 L32.2993548,31.8724424 Z M50.5799078,16.6141935 C47.2346544,16.040553 46.2739171,15.91447 44.6643318,15.91447 C41.7732719,15.91447 40.8995392,16.5522581 40.8995392,19.0075576 L40.8995392,23.6519816 C40.8995392,26.1072811 41.7732719,26.7480184 44.6643318,26.7480184 C46.2739171,26.7480184 47.2346544,26.6197235 50.5799078,26.043871 L50.5799078,31.2914286 C47.6497696,31.9483871 45.7408295,32.1209217 44.1275576,32.1209217 C37.2025806,32.1209217 34.4501382,28.4792627 34.4501382,23.2184332 L34.4501382,19.4499539 C34.4501382,14.1847005 37.2025806,10.5364055 44.1275576,10.5364055 C45.7408295,10.5364055 47.6497696,10.7096774 50.5799078,11.3695853 L50.5799078,16.6141935 Z M70.764977,23.2184332 L58.9367742,23.2184332 L58.9367742,23.6519816 C58.9367742,26.1072811 59.8112442,26.7480184 62.7015668,26.7480184 C65.2999078,26.7480184 66.8858986,26.6197235 70.2252535,26.043871 L70.2252535,31.2914286 C67.0046083,31.9483871 65.3264516,32.1209217 62.1670046,32.1209217 C55.2412903,32.1209217 52.4873733,28.4792627 52.4873733,23.2184332 L52.4873733,18.9094931 C52.4873733,14.3063594 54.5305069,10.5364055 61.6272811,10.5364055 C68.7240553,10.5364055 70.764977,14.2628571 70.764977,18.9094931 L70.764977,23.2184332 Z M91.7323502,23.3179724 C91.7323502,28.4025806 90.2790783,32.1113364 81.4753917,32.1113364 C78.2960369,32.1113364 76.4313364,31.8318894 72.9223963,31.2921659 L72.9223963,2.22672811 L79.3703226,1.15096774 L79.3703226,11.3179724 C80.763871,10.8003687 82.5673733,10.5371429 84.2086636,10.5371429 C90.6573272,10.5371429 91.7316129,13.4282028 91.7316129,18.0741014 L91.7316129,23.3179724 L91.7323502,23.3179724 Z M112.401843,23.4285714 C112.401843,27.8149309 110.590968,32.0693088 103.014194,32.0693088 C95.4337327,32.0693088 93.5889401,27.8149309 93.5889401,23.4285714 L93.5889401,19.1933641 C93.5889401,14.8047926 95.4337327,10.5496774 103.014194,10.5496774 C110.590968,10.5496774 112.401843,14.8047926 112.401843,19.1933641 L112.401843,23.4285714 Z M133.057327,23.4285714 C133.057327,27.8149309 131.24424,32.0693088 123.66894,32.0693088 C116.088479,32.0693088 114.243687,27.8149309 114.243687,23.4285714 L114.243687,19.1933641 C114.243687,14.8047926 116.088479,10.5496774 123.66894,10.5496774 C131.24424,10.5496774 133.057327,14.8047926 133.057327,19.1933641 L133.057327,23.4285714 Z M154.254747,31.8318894 L147.265622,31.8318894 L141.35447,21.9642396 L141.35447,31.8318894 L134.904332,31.8318894 L134.904332,2.22599078 L141.35447,1.15023041 L141.35447,20.2094009 L147.265622,10.8401843 L154.254747,10.8401843 L147.801659,21.0647005 L154.254747,31.8318894 Z M123.64682,15.9240553 C121.456221,15.9240553 120.696037,17.1214747 120.696037,18.6123502 L120.696037,24.0530876 C120.696037,25.5476498 121.456221,26.7487558 123.64682,26.7487558 C125.83447,26.7487558 126.608664,25.5476498 126.608664,24.0530876 L126.608664,18.6123502 C126.608664,17.1214747 125.83447,15.9240553 123.64682,15.9240553 Z M157.936221,28.1496774 C159.022304,28.1496774 159.887189,29.0352074 159.887189,30.1411982 C159.887189,31.2641475 159.021567,32.1400922 157.928111,32.1400922 C156.839816,32.1400922 155.957235,31.2641475 155.957235,30.1411982 C155.957235,29.0352074 156.839816,28.1496774 157.928111,28.1496774 L157.936221,28.1496774 Z M157.928111,28.4593548 C157.052903,28.4593548 156.336959,29.2121659 156.336959,30.1411982 C156.336959,31.0871889 157.053641,31.8304147 157.936221,31.8304147 C158.819539,31.8392627 159.525161,31.0871889 159.525161,30.1500461 C159.525161,29.2129032 158.819539,28.4593548 157.936221,28.4593548 L157.928111,28.4593548 Z M157.557235,31.3002765 L157.203318,31.3002765 L157.203318,29.0779724 C157.389124,29.0521659 157.566083,29.0263594 157.831521,29.0263594 C158.167742,29.0263594 158.387465,29.0971429 158.522396,29.1937327 C158.652903,29.2917972 158.722949,29.4414747 158.722949,29.6530876 C158.722949,29.9465438 158.52977,30.122765 158.291613,30.1942857 L158.291613,30.2112442 C158.48553,30.2473733 158.617512,30.4228571 158.662488,30.7494931 C158.714101,31.0952995 158.767926,31.2272811 158.802581,31.2995392 L158.431705,31.2995392 C158.379355,31.2272811 158.32553,31.0245161 158.28129,30.7317972 C158.229677,30.4494009 158.086636,30.3432258 157.803502,30.3432258 L157.557972,30.3432258 L157.557972,31.3002765 L157.557235,31.3002765 Z M157.557235,30.0704147 L157.813825,30.0704147 C158.104332,30.0704147 158.351336,29.9635023 158.351336,29.6884793 C158.351336,29.4938249 158.211244,29.2999078 157.813825,29.2999078 C157.698065,29.2999078 157.617696,29.3087558 157.557235,29.3168664 L157.557235,30.0704147 Z" id="Shape"></path>
                </g>
            </g>
        </g>
    </g>
</svg>