<?xml version="1.0" encoding="UTF-8"?>
<svg width="36px" height="36px" viewBox="0 0 36 36" version="1.1" xmlns="http://www.w3.org/2000/svg" xmlns:xlink="http://www.w3.org/1999/xlink">
    <!-- Generator: Sketch 48.2 (47327) - http://www.bohemiancoding.com/sketch -->
    <title>Rectangle 4</title>
    <desc>Created with Sketch.</desc>
    <defs></defs>
    <g id="02_Request-list-480х800" stroke="none" stroke-width="1" fill="#2f59c5" fill-rule="evenodd" transform="translate(-222.000000, -3437.000000)">
        <g id="Table" transform="translate(0.000000, 1178.000000)" fill="">
            <path d="M240,2259 C240.552285,2259 241,2259.44772 241,2260 L241,2267 C241,2267.55228 240.552285,2268 240,2268 C239.447715,2268 239,2267.55228 239,2267 L239,2260 C239,2259.44772 239.447715,2259 240,2259 Z M249,2261.41154 C249.478293,2261.68769 249.642168,2262.29928 249.366025,2262.77757 L245.866025,2268.83975 C245.589883,2269.31804 244.978293,2269.48191 244.5,2269.20577 C244.021707,2268.92963 243.857832,2268.31804 244.133975,2267.83975 L247.633975,2261.77757 C247.910117,2261.29928 248.521707,2261.1354 249,2261.41154 Z M255.588457,2268 C255.8646,2268.47829 255.700724,2269.08988 255.222432,2269.36603 L249.160254,2272.86603 C248.681961,2273.14217 248.070371,2272.97829 247.794229,2272.5 C247.518086,2272.02171 247.681961,2271.41012 248.160254,2271.13397 L254.222432,2267.63397 C254.700724,2267.35783 255.312315,2267.52171 255.588457,2268 Z M258,2277 C258,2277.55228 257.552285,2278 257,2278 L250,2278 C249.447715,2278 249,2277.55228 249,2277 C249,2276.44772 249.447715,2276 250,2276 L257,2276 C257.552285,2276 258,2276.44772 258,2277 Z M255.588457,2286 C255.312315,2286.47829 254.700724,2286.64217 254.222432,2286.36603 L248.160254,2282.86603 C247.681961,2282.58988 247.518086,2281.97829 247.794229,2281.5 C248.070371,2281.02171 248.681961,2280.85783 249.160254,2281.13397 L255.222432,2284.63397 C255.700724,2284.91012 255.8646,2285.52171 255.588457,2286 Z M249,2292.58846 C248.521707,2292.8646 247.910117,2292.70072 247.633975,2292.22243 L244.133975,2286.16025 C243.857832,2285.68196 244.021707,2285.07037 244.5,2284.79423 C244.978293,2284.51809 245.589883,2284.68196 245.866025,2285.16025 L249.366025,2291.22243 C249.642168,2291.70072 249.478293,2292.31231 249,2292.58846 Z M240,2295 C239.447715,2295 239,2294.55228 239,2294 L239,2287 C239,2286.44772 239.447715,2286 240,2286 C240.552285,2286 241,2286.44772 241,2287 L241,2294 C241,2294.55228 240.552285,2295 240,2295 Z M231,2292.58846 C230.521707,2292.31231 230.357832,2291.70072 230.633975,2291.22243 L234.133975,2285.16025 C234.410117,2284.68196 235.021707,2284.51809 235.5,2284.79423 C235.978293,2285.07037 236.142168,2285.68196 235.866025,2286.16025 L232.366025,2292.22243 C232.089883,2292.70072 231.478293,2292.8646 231,2292.58846 Z M224.411543,2286 C224.1354,2285.52171 224.299276,2284.91012 224.777568,2284.63397 L230.839746,2281.13397 C231.318039,2280.85783 231.929629,2281.02171 232.205771,2281.5 C232.481914,2281.97829 232.318039,2282.58988 231.839746,2282.86603 L225.777568,2286.36603 C225.299276,2286.64217 224.687685,2286.47829 224.411543,2286 Z M222,2277 C222,2276.44772 222.447715,2276 223,2276 L230,2276 C230.552285,2276 231,2276.44772 231,2277 C231,2277.55228 230.552285,2278 230,2278 L223,2278 C222.447715,2278 222,2277.55228 222,2277 Z M224.411543,2268 C224.687685,2267.52171 225.299276,2267.35783 225.777568,2267.63397 L231.839746,2271.13397 C232.318039,2271.41012 232.481914,2272.02171 232.205771,2272.5 C231.929629,2272.97829 231.318039,2273.14217 230.839746,2272.86603 L224.777568,2269.36603 C224.299276,2269.08988 224.1354,2268.47829 224.411543,2268 Z M231,2261.41154 C231.478293,2261.1354 232.089883,2261.29928 232.366025,2261.77757 L235.866025,2267.83975 C236.142168,2268.31804 235.978293,2268.92963 235.5,2269.20577 C235.021707,2269.48191 234.410117,2269.31804 234.133975,2268.83975 L230.633975,2262.77757 C230.357832,2262.29928 230.521707,2261.68769 231,2261.41154 Z" id="Rectangle-4"></path>
        </g>
    </g>
</svg>