<?xml version="1.0" encoding="UTF-8"?>
<svg width="16px" height="16px" viewBox="0 0 16 16" version="1.1" xmlns="http://www.w3.org/2000/svg" xmlns:xlink="http://www.w3.org/1999/xlink">
    <!-- Generator: Sketch 48.2 (47327) - http://www.bohemiancoding.com/sketch -->
    <title>Combined Shape</title>
    <desc>Created with Sketch.</desc>
    <defs></defs>
    <g id="02_Request-list-480х800" stroke="none" stroke-width="1" fill="none" fill-rule="evenodd" transform="translate(-104.000000, -706.000000)">
        <g id="1-st-Screen" transform="translate(0.000000, 164.000000)" fill="#909DBD">
            <g id="search" transform="translate(30.000000, 122.000000)">
                <g id="Group-3" transform="translate(0.000000, 404.000000)">
                    <path d="M79,25 L81,25 C81.5522847,25 82,25.4477153 82,26 C82,26.5522847 81.5522847,27 81,27 L79,27 L79,29 C79,29.5522847 78.5522847,30 78,30 C77.4477153,30 77,29.5522847 77,29 L77,27 L75,27 C74.4477153,27 74,26.5522847 74,26 C74,25.4477153 74.4477153,25 75,25 L77,25 L77,23 C77,22.4477153 77.4477153,22 78,22 C78.5522847,22 79,22.4477153 79,23 L79,25 Z M74.0000002,23 C74.0000001,22.9993877 74,22.9987753 74,22.998163 C74,21.1280023 74.728127,19.3698011 76.0502857,18.0473716 C78.7795556,15.3175428 83.2204444,15.3175428 85.9497143,18.0473716 C87.271873,19.3698011 88,21.1280023 88,22.998163 C88,24.5033463 87.528341,25.9360057 86.654934,27.1272876 L89.6836526,30.1559828 C90.1054491,30.5778625 90.1054491,31.2617536 89.6836526,31.6836334 C89.4727111,31.8944869 89.1962662,32 88.9198214,32 C88.6433765,32 88.3669317,31.8945733 88.1559902,31.6836334 L85.127335,28.6549475 C83.9364842,29.5280902 82.5044775,29.9995965 81,29.9995965 L81,28 C82.3357318,28 83.5913704,27.4798193 84.5357975,26.5351989 C85.4801659,25.5905784 86.0002987,24.3346826 86.0002987,22.9988267 C86.0002987,21.6629708 85.4801659,20.407075 84.5357975,19.4624545 C83.5609883,18.4875044 82.2805981,18 81.0001493,18 C79.7197005,18 78.4393104,18.4875044 77.4645012,19.4624545 C76.5201328,20.407075 76,21.6629708 76,22.9988267 C76,22.9992178 76,22.9996089 76.0000001,23 L74.0000002,23 Z" id="Combined-Shape"></path>
                </g>
            </g>
        </g>
    </g>
</svg>