<?xml version="1.0" encoding="UTF-8"?>
<svg width="14px" height="15px" viewBox="0 0 14 15" version="1.1" xmlns="http://www.w3.org/2000/svg" xmlns:xlink="http://www.w3.org/1999/xlink">
    <!-- Generator: Sketch 48.2 (47327) - http://www.bohemiancoding.com/sketch -->
    <title>Star G</title>
    <desc>Created with Sketch.</desc>
    <defs></defs>
    <g id="02_Request-list" stroke="none" stroke-width="1" fill="none" fill-rule="evenodd" transform="translate(-1157.000000, -845.000000)">
        <g id="Table" transform="translate(368.000000, 705.000000)" fill="#C3CADB" fill-rule="nonzero">
            <g id="Line-1" transform="translate(0.000000, 136.000000)">
                <g id="Stars" transform="translate(716.000000, 4.000000)">
                    <path d="M80,12 L76.1944541,14.0006939 C75.9500318,14.1291943 75.6477182,14.035221 75.5192178,13.7907988 C75.4680482,13.6934685 75.4503909,13.5819845 75.4689793,13.4736057 L76.1957739,9.23606798 L73.1170226,6.23502713 C72.9192808,6.04227652 72.9152347,5.72571989 73.1079853,5.5279781 C73.1847396,5.44923628 73.2853108,5.39799269 73.3941293,5.38218044 L77.648859,4.76393202 L79.551632,0.908492875 C79.6738431,0.660866045 79.973656,0.559196546 80.2212829,0.681407693 C80.3198892,0.730072812 80.3997029,0.809886573 80.448368,0.908492875 L82.351141,4.76393202 L86.6058707,5.38218044 C86.8791431,5.42188925 87.0684839,5.67561067 87.0287751,5.9488831 C87.0129628,6.05770162 86.9617192,6.15827282 86.8829774,6.23502713 L83.8042261,9.23606798 L84.5310207,13.4736057 C84.5777012,13.7457739 84.3949073,14.0042518 84.122739,14.0509324 C84.0143602,14.0695208 83.9028762,14.0518634 83.8055459,14.0006939 L80,12 Z M80,9.74044854 L82.04602,10.8161049 L81.6552649,8.53782818 L83.3105298,6.92434365 L81.02301,6.59194755 L80,4.51910292 L78.97699,6.59194755 L76.6894702,6.92434365 L78.3447351,8.53782818 L77.95398,10.8161049 L80,9.74044854 Z" id="Star-G"></path>
                </g>
            </g>
        </g>
    </g>
</svg>