<?xml version="1.0" encoding="UTF-8"?>
<svg width="14px" height="15px" viewBox="0 0 14 15" version="1.1" xmlns="http://www.w3.org/2000/svg" xmlns:xlink="http://www.w3.org/1999/xlink">
    <!-- Generator: Sketch 48.2 (47327) - http://www.bohemiancoding.com/sketch -->
    <title>Star G Copy 7</title>
    <desc>Created with Sketch.</desc>
    <defs></defs>
    <g id="03_Request-map" stroke="none" stroke-width="1" fill="none" fill-rule="evenodd" transform="translate(-87.000000, -154.000000)">
        <g id="sidebar" fill="#C3CADB" fill-rule="nonzero">
            <g id="Login" transform="translate(32.000000, 130.000000)">
                <g id="Stars" transform="translate(0.000000, 24.000000)">
                    <path d="M62,9.74044854 L64.04602,10.8161049 L63.6552649,8.53782818 L65.3105298,6.92434365 L63.02301,6.59194755 L62,4.51910292 L60.97699,6.59194755 L58.6894702,6.92434365 L60.3447351,8.53782818 L59.95398,10.8161049 L62,9.74044854 Z M62,12 L58.1944541,14.0006939 C57.9500318,14.1291943 57.6477182,14.035221 57.5192178,13.7907988 C57.4680482,13.6934685 57.4503909,13.5819845 57.4689793,13.4736057 L58.1957739,9.23606798 L55.1170226,6.23502713 C54.9192808,6.04227652 54.9152347,5.72571989 55.1079853,5.5279781 C55.1847396,5.44923628 55.2853108,5.39799269 55.3941293,5.38218044 L59.648859,4.76393202 L61.551632,0.908492875 C61.6738431,0.660866045 61.973656,0.559196546 62.2212829,0.681407693 C62.3198892,0.730072812 62.3997029,0.809886573 62.448368,0.908492875 L64.351141,4.76393202 L68.6058707,5.38218044 C68.8791431,5.42188925 69.0684839,5.67561067 69.0287751,5.9488831 C69.0129628,6.05770162 68.9617192,6.15827282 68.8829774,6.23502713 L65.8042261,9.23606798 L66.5310207,13.4736057 C66.5777012,13.7457739 66.3949073,14.0042518 66.122739,14.0509324 C66.0143602,14.0695208 65.9028762,14.0518634 65.8055459,14.0006939 L62,12 Z" id="Star-G-Copy-7"></path>
                </g>
            </g>
        </g>
    </g>
</svg>