<?xml version="1.0" encoding="UTF-8"?>
<svg width="14px" height="15px" viewBox="0 0 14 15" version="1.1" xmlns="http://www.w3.org/2000/svg" xmlns:xlink="http://www.w3.org/1999/xlink">
    <!-- Generator: Sketch 48.2 (47327) - http://www.bohemiancoding.com/sketch -->
    <title>Star Y</title>
    <desc>Created with Sketch.</desc>
    <defs></defs>
    <g id="02_Request-list" stroke="none" stroke-width="1" fill="none" fill-rule="evenodd" transform="translate(-1085.000000, -845.000000)">
        <g id="Table" transform="translate(368.000000, 705.000000)" fill="#FCC164" fill-rule="nonzero">
            <g id="Line-1" transform="translate(0.000000, 136.000000)">
                <g id="Stars" transform="translate(716.000000, 4.000000)">
                    <path d="M8,12 L4.19445406,14.0006939 C3.95003177,14.1291943 3.64771819,14.035221 3.51921778,13.7907988 C3.46804825,13.6934685 3.45039091,13.5819845 3.46897933,13.4736057 L4.19577393,9.23606798 L1.1170226,6.23502713 C0.919280806,6.04227652 0.915234653,5.72571989 1.10798526,5.5279781 C1.18473956,5.44923628 1.28531077,5.39799269 1.39412928,5.38218044 L5.64885899,4.76393202 L7.55163196,0.908492875 C7.67384311,0.660866045 7.97365603,0.559196546 8.22128286,0.681407693 C8.31988916,0.730072812 8.39970292,0.809886573 8.44836804,0.908492875 L10.351141,4.76393202 L14.6058707,5.38218044 C14.8791431,5.42188925 15.0684839,5.67561067 15.0287751,5.9488831 C15.0129628,6.05770162 14.9617192,6.15827282 14.8829774,6.23502713 L11.8042261,9.23606798 L12.5310207,13.4736057 C12.5777012,13.7457739 12.3949073,14.0042518 12.122739,14.0509324 C12.0143602,14.0695208 11.9028762,14.0518634 11.8055459,14.0006939 L8,12 Z M8,9.74044854 L10.04602,10.8161049 L9.65526492,8.53782818 L11.3105298,6.92434365 L9.02300998,6.59194755 L8,4.51910292 L6.97699002,6.59194755 L4.68947015,6.92434365 L6.34473508,8.53782818 L5.95398003,10.8161049 L8,9.74044854 Z" id="Star-Y"></path>
                </g>
            </g>
        </g>
    </g>
</svg>