<?xml version="1.0" encoding="UTF-8"?>
<svg width="12px" height="18px" viewBox="0 0 12 18" version="1.1" xmlns="http://www.w3.org/2000/svg" xmlns:xlink="http://www.w3.org/1999/xlink">
    <!-- Generator: Sketch 48.2 (47327) - http://www.bohemiancoding.com/sketch -->
    <title>user 2</title>
    <desc>Created with Sketch.</desc>
    <defs></defs>
    <g id="01_Zernovozam" stroke="none" stroke-width="1" fill="none" fill-rule="evenodd" transform="translate(-383.000000, -195.000000)">
        <g id="1-st-Screen" transform="translate(368.000000, -453.000000)" fill="#53A5D1" fill-rule="nonzero">
            <path d="M15,648.771283 C15.87399,648.280216 16.8834133,648 17.9585856,648 C21.2875425,648 23.9861952,650.686292 23.9861952,654 C23.9861952,655.609687 23.3493975,657.071324 22.3128878,658.14891 C24.9966514,658.755594 27,661.144915 27,664 L27,665 C27,665.552285 26.5522847,666 26,666 L19.7962976,666 C19.9073578,665.687221 19.9677888,665.350635 19.9677888,665 L19.9677888,664 L24.9907968,664 C24.9907968,661.790861 23.191695,660 20.9723904,660 L18.8926064,660 C18.43452,659.211733 17.8451952,658.508491 17.1543721,657.919878 C17.4142145,657.972418 17.6831642,658 17.9585856,658 C20.1778902,658 21.976992,656.209139 21.976992,654 C21.976992,651.790861 20.1778902,650 17.9585856,650 C17.2952517,650 16.6694575,650.15999 16.1180223,650.443319 C15.8159762,649.838552 15.4393038,649.277226 15,648.771283 Z" id="user-2"></path>
        </g>
    </g>
</svg>