<?xml version="1.0" encoding="UTF-8"?>
<svg width="18px" height="18px" viewBox="0 0 18 18" version="1.1" xmlns="http://www.w3.org/2000/svg" xmlns:xlink="http://www.w3.org/1999/xlink">
    <!-- Generator: Sketch 48.2 (47327) - http://www.bohemiancoding.com/sketch -->
    <title>user 1</title>
    <desc>Created with Sketch.</desc>
    <defs></defs>
    <g id="01_Zernovozam" stroke="none" stroke-width="1" fill="none" fill-rule="evenodd" transform="translate(-368.000000, -195.000000)">
        <g id="1-st-Screen" transform="translate(368.000000, -453.000000)" fill="#64C7FC" fill-rule="nonzero">
            <path d="M4.66564277,658.14891 C3.63388085,657.071324 3,655.609687 3,654 C3,650.686292 5.6862915,648 9,648 C12.3137085,648 15,650.686292 15,654 C15,655.609687 14.3661191,657.071324 13.3343572,658.14891 C16.0058278,658.755594 18,661.144915 18,664 L18,665 C18,665.552285 17.5522847,666 17,666 L1,666 C0.44771525,666 6.76353751e-17,665.552285 0,665 L2.22044605e-16,664 C4.46337183e-16,661.144915 1.99417218,658.755594 4.66564277,658.14891 Z M9,658 C11.209139,658 13,656.209139 13,654 C13,651.790861 11.209139,650 9,650 C6.790861,650 5,651.790861 5,654 C5,656.209139 6.790861,658 9,658 Z M16,664 C16,661.790861 14.209139,660 12,660 L6,660 C3.790861,660 2,661.790861 2,664 L16,664 Z" id="user-1"></path>
        </g>
    </g>
</svg>