<?xml version="1.0" encoding="UTF-8"?>
<svg width="12px" height="18px" viewBox="0 0 12 18" version="1.1" xmlns="http://www.w3.org/2000/svg" xmlns:xlink="http://www.w3.org/1999/xlink">
    <!-- Generator: Sketch 48.2 (47327) - http://www.bohemiancoding.com/sketch -->
    <title>user 3</title>
    <desc>Created with Sketch.</desc>
    <defs></defs>
    <g id="01_Zernovozam" stroke="none" stroke-width="1" fill="none" fill-rule="evenodd" transform="translate(-392.000000, -195.000000)">
        <g id="1-st-Screen" transform="translate(368.000000, -453.000000)" fill="#377CCD" fill-rule="nonzero">
            <path d="M24,648.771283 C24.87399,648.280216 25.8834133,648 26.9585856,648 C30.2875425,648 32.9861952,650.686292 32.9861952,654 C32.9861952,655.609687 32.3493975,657.071324 31.3128878,658.14891 C33.9966514,658.755594 36,661.144915 36,664 L36,665 C36,665.552285 35.5522847,666 35,666 L28.7962976,666 C28.9073578,665.687221 28.9677888,665.350635 28.9677888,665 L28.9677888,664 L33.9907968,664 C33.9907968,661.790861 32.191695,660 29.9723904,660 L27.8926064,660 C27.43452,659.211733 26.8451952,658.508491 26.1543721,657.919878 C26.4142145,657.972418 26.6831642,658 26.9585856,658 C29.1778902,658 30.976992,656.209139 30.976992,654 C30.976992,651.790861 29.1778902,650 26.9585856,650 C26.2952517,650 25.6694575,650.15999 25.1180223,650.443319 C24.8159762,649.838552 24.4393038,649.277226 24,648.771283 Z" id="user-3"></path>
        </g>
    </g>
</svg>