<?xml version="1.0" standalone="no"?>
<!DOCTYPE svg PUBLIC "-//W3C//DTD SVG 20010904//EN"
 "http://www.w3.org/TR/2001/REC-SVG-20010904/DTD/svg10.dtd">
<svg version="1.0" xmlns="http://www.w3.org/2000/svg"
 width="339.000000pt" height="339.000000pt" viewBox="0 0 339.000000 339.000000"
 preserveAspectRatio="xMidYMid meet">
<metadata>
Created by potrace 1.11, written by Peter Selinger 2001-2013
</metadata>
<g transform="translate(0.000000,339.000000) scale(0.100000,-0.100000)"
fill="#000000" stroke="none">
<path d="M0 1700 l0 -480 1695 0 1695 0 0 480 0 480 -1695 0 -1695 0 0 -480z
m1520 168 c64 -32 92 -85 87 -161 -6 -98 -69 -157 -167 -157 -66 0 -110 24
-148 80 -20 30 -23 44 -20 97 5 73 25 107 84 140 50 29 108 29 164 1z m222
-103 c20 -66 39 -113 42 -105 3 8 20 63 37 123 l32 107 39 0 c25 0 38 -5 38
-13 0 -7 -23 -84 -50 -171 l-51 -157 -52 3 -51 3 -47 145 c-25 80 -49 155 -53
168 -7 22 -6 23 36 20 l43 -3 37 -120z m485 99 c50 -37 67 -70 71 -137 3 -53
0 -67 -20 -97 -68 -99 -192 -116 -272 -36 -83 84 -58 234 49 282 43 20 138 13
172 -12z m341 -4 c2 -17 -18 -58 -62 -127 l-64 -102 61 -3 62 -3 3 -37 3 -38
-115 0 -116 0 0 33 c0 23 18 61 60 127 l60 95 -60 3 -60 3 0 40 0 40 113 -3
c111 -3 112 -3 115 -28z m282 -142 l58 -168 -44 0 c-38 0 -44 3 -50 25 -6 23
-10 25 -70 25 -60 0 -64 -2 -70 -25 -5 -22 -12 -25 -51 -25 -32 0 -44 4 -41
13 3 6 29 83 59 170 l54 158 49 -3 48 -3 58 -167z m200 97 c24 -41 47 -72 50
-69 3 3 23 36 46 72 39 64 42 67 80 67 l39 0 3 -167 2 -168 -40 0 -40 0 0 98
0 97 -34 -55 c-64 -104 -57 -102 -102 -26 l-39 68 -3 -91 -3 -91 -39 0 -40 0
0 170 0 170 38 0 c36 0 39 -3 82 -75z m-2690 35 c0 -19 -21 -62 -60 -123 -33
-52 -60 -97 -60 -100 0 -4 29 -7 65 -7 l65 0 0 -35 0 -35 -115 0 -115 0 0 32
c0 21 19 61 60 125 33 51 60 95 60 98 0 3 -27 5 -60 5 l-60 0 0 35 0 35 110 0
110 0 0 -30z m248 -2 l-3 -33 -67 -3 c-65 -3 -68 -4 -68 -27 0 -24 3 -25 60
-25 l60 0 0 -40 0 -40 -61 0 c-60 0 -60 0 -57 -27 3 -27 5 -28 71 -31 l67 -3
0 -34 0 -35 -105 0 -105 0 0 165 0 165 106 0 105 0 -3 -32z m249 15 c33 -22
55 -75 47 -111 -4 -15 -18 -39 -32 -54 l-25 -27 32 -55 c17 -31 31 -58 31 -61
0 -3 -17 -5 -37 -5 -36 0 -40 3 -68 55 -22 42 -35 55 -52 55 -21 0 -23 -4 -23
-55 l0 -55 -35 0 -35 0 0 165 0 165 85 0 c64 0 92 -4 112 -17z m215 -70 l63
-88 3 88 3 87 34 0 35 0 0 -165 0 -165 -27 0 c-24 0 -38 15 -93 93 l-65 92 -3
-92 -3 -93 -34 0 -35 0 0 165 0 165 29 0 c26 0 38 -12 93 -87z"/>
<path d="M1395 1806 c-51 -22 -68 -82 -40 -136 50 -96 201 -42 181 64 -12 64
-81 99 -141 72z"/>
<path d="M2105 1813 c-81 -20 -97 -141 -24 -178 65 -34 118 -9 143 68 10 33
-20 86 -58 102 -20 8 -37 14 -38 14 -2 -1 -12 -3 -23 -6z"/>
<path d="M2727 1745 c-22 -65 -22 -65 19 -65 39 0 38 -5 9 80 l-12 34 -16 -49z"/>
<path d="M737 1813 c-4 -3 -7 -24 -7 -45 l0 -38 44 0 c45 0 56 10 56 51 0 27
-73 53 -93 32z"/>
</g>
</svg>
